<mxfile host="app.diagrams.net" modified="2020-06-05T03:27:10.414Z" agent="5.0 (Windows NT 6.1; Win64; x64) AppleWebKit/537.36 (KHTML, like Gecko) Chrome/78.0.3904.97 Safari/537.36" etag="FUlv3VD1hHapUUBs0Qgr" version="13.1.3" type="github">
  <diagram id="_zmaIjU_WBJLb72oMKqH" name="Page-1">
    <mxGraphModel dx="1185" dy="662" grid="1" gridSize="10" guides="1" tooltips="1" connect="1" arrows="1" fold="1" page="1" pageScale="1" pageWidth="827" pageHeight="1169" math="0" shadow="0">
      <root>
        <mxCell id="0" />
        <mxCell id="1" parent="0" />
        <mxCell id="TopPfdqth3kxaZBov_Pg-15" value="LSTM" style="whiteSpace=wrap;html=1;aspect=fixed;fontFamily=Times New Roman;fontSize=14;" vertex="1" parent="1">
          <mxGeometry x="389" y="170" width="40" height="40" as="geometry" />
        </mxCell>
        <mxCell id="TopPfdqth3kxaZBov_Pg-14" value="LSTM" style="whiteSpace=wrap;html=1;aspect=fixed;fontFamily=Times New Roman;fontSize=14;" vertex="1" parent="1">
          <mxGeometry x="304" y="170" width="40" height="40" as="geometry" />
        </mxCell>
        <mxCell id="TopPfdqth3kxaZBov_Pg-13" value="LSTM" style="whiteSpace=wrap;html=1;aspect=fixed;fontFamily=Times New Roman;fontSize=14;" vertex="1" parent="1">
          <mxGeometry x="222" y="170" width="40" height="40" as="geometry" />
        </mxCell>
        <mxCell id="TopPfdqth3kxaZBov_Pg-1" value="" style="shape=cube;whiteSpace=wrap;html=1;boundedLbl=1;backgroundOutline=1;darkOpacity=0.05;darkOpacity2=0.1;rotation=90;size=15;" vertex="1" parent="1">
          <mxGeometry x="208.07" y="326.06" width="95.87" height="40" as="geometry" />
        </mxCell>
        <mxCell id="TopPfdqth3kxaZBov_Pg-5" value="" style="shape=cube;whiteSpace=wrap;html=1;boundedLbl=1;backgroundOutline=1;darkOpacity=0.05;darkOpacity2=0.1;rotation=90;size=15;" vertex="1" parent="1">
          <mxGeometry x="238.07" y="326.06" width="95.87" height="40" as="geometry" />
        </mxCell>
        <mxCell id="TopPfdqth3kxaZBov_Pg-6" value="" style="shape=cube;whiteSpace=wrap;html=1;boundedLbl=1;backgroundOutline=1;darkOpacity=0.05;darkOpacity2=0.1;rotation=90;size=15;" vertex="1" parent="1">
          <mxGeometry x="268.07" y="326.06" width="95.87" height="40" as="geometry" />
        </mxCell>
        <mxCell id="TopPfdqth3kxaZBov_Pg-7" value="" style="shape=cube;whiteSpace=wrap;html=1;boundedLbl=1;backgroundOutline=1;darkOpacity=0.05;darkOpacity2=0.1;rotation=90;size=15;" vertex="1" parent="1">
          <mxGeometry x="321.07" y="325.06" width="93.87" height="40" as="geometry" />
        </mxCell>
        <mxCell id="TopPfdqth3kxaZBov_Pg-8" value="" style="shape=cube;whiteSpace=wrap;html=1;boundedLbl=1;backgroundOutline=1;darkOpacity=0.05;darkOpacity2=0.1;rotation=90;size=15;" vertex="1" parent="1">
          <mxGeometry x="351.07" y="325.06" width="93.87" height="40" as="geometry" />
        </mxCell>
        <mxCell id="TopPfdqth3kxaZBov_Pg-9" value="" style="shape=cube;whiteSpace=wrap;html=1;boundedLbl=1;backgroundOutline=1;darkOpacity=0.05;darkOpacity2=0.1;rotation=90;size=15;" vertex="1" parent="1">
          <mxGeometry x="381.07" y="325.06" width="93.87" height="40" as="geometry" />
        </mxCell>
        <mxCell id="TopPfdqth3kxaZBov_Pg-10" value="LSTM" style="whiteSpace=wrap;html=1;aspect=fixed;fontFamily=Times New Roman;fontSize=14;" vertex="1" parent="1">
          <mxGeometry x="240" y="200" width="40" height="40" as="geometry" />
        </mxCell>
        <mxCell id="TopPfdqth3kxaZBov_Pg-11" value="LSTM" style="whiteSpace=wrap;html=1;aspect=fixed;fontFamily=Times New Roman;fontSize=14;" vertex="1" parent="1">
          <mxGeometry x="322" y="200" width="40" height="40" as="geometry" />
        </mxCell>
        <mxCell id="TopPfdqth3kxaZBov_Pg-12" value="LSTM" style="whiteSpace=wrap;html=1;aspect=fixed;fontFamily=Times New Roman;fontSize=14;" vertex="1" parent="1">
          <mxGeometry x="405.75" y="200" width="40" height="40" as="geometry" />
        </mxCell>
        <mxCell id="TopPfdqth3kxaZBov_Pg-16" value="" style="endArrow=classic;html=1;fontFamily=Times New Roman;fontSize=14;entryX=0.5;entryY=1;entryDx=0;entryDy=0;" edge="1" parent="1" target="TopPfdqth3kxaZBov_Pg-10">
          <mxGeometry width="50" height="50" relative="1" as="geometry">
            <mxPoint x="260" y="270" as="sourcePoint" />
            <mxPoint x="330" y="220" as="targetPoint" />
          </mxGeometry>
        </mxCell>
        <mxCell id="TopPfdqth3kxaZBov_Pg-17" value="" style="endArrow=classic;html=1;fontFamily=Times New Roman;fontSize=14;entryX=0.5;entryY=1;entryDx=0;entryDy=0;" edge="1" parent="1">
          <mxGeometry width="50" height="50" relative="1" as="geometry">
            <mxPoint x="341.8" y="270" as="sourcePoint" />
            <mxPoint x="341.8" y="240" as="targetPoint" />
          </mxGeometry>
        </mxCell>
        <mxCell id="TopPfdqth3kxaZBov_Pg-18" value="" style="endArrow=classic;html=1;fontFamily=Times New Roman;fontSize=14;entryX=0.5;entryY=1;entryDx=0;entryDy=0;" edge="1" parent="1">
          <mxGeometry width="50" height="50" relative="1" as="geometry">
            <mxPoint x="427" y="270" as="sourcePoint" />
            <mxPoint x="427" y="240" as="targetPoint" />
          </mxGeometry>
        </mxCell>
        <mxCell id="TopPfdqth3kxaZBov_Pg-19" value="" style="endArrow=classic;html=1;fontFamily=Times New Roman;fontSize=14;entryX=0;entryY=0.5;entryDx=0;entryDy=0;exitX=1;exitY=0.5;exitDx=0;exitDy=0;" edge="1" parent="1" source="TopPfdqth3kxaZBov_Pg-10" target="TopPfdqth3kxaZBov_Pg-11">
          <mxGeometry width="50" height="50" relative="1" as="geometry">
            <mxPoint x="290" y="300" as="sourcePoint" />
            <mxPoint x="290" y="270" as="targetPoint" />
          </mxGeometry>
        </mxCell>
        <mxCell id="TopPfdqth3kxaZBov_Pg-20" value="" style="endArrow=classic;html=1;fontFamily=Times New Roman;fontSize=14;entryX=0;entryY=0.5;entryDx=0;entryDy=0;exitX=1;exitY=0.5;exitDx=0;exitDy=0;" edge="1" parent="1" source="TopPfdqth3kxaZBov_Pg-11" target="TopPfdqth3kxaZBov_Pg-12">
          <mxGeometry width="50" height="50" relative="1" as="geometry">
            <mxPoint x="300" y="310" as="sourcePoint" />
            <mxPoint x="300" y="280" as="targetPoint" />
          </mxGeometry>
        </mxCell>
        <mxCell id="TopPfdqth3kxaZBov_Pg-21" value="" style="endArrow=classic;html=1;fontFamily=Times New Roman;fontSize=14;entryX=1;entryY=0.5;entryDx=0;entryDy=0;exitX=0;exitY=0.5;exitDx=0;exitDy=0;" edge="1" parent="1" source="TopPfdqth3kxaZBov_Pg-14" target="TopPfdqth3kxaZBov_Pg-13">
          <mxGeometry width="50" height="50" relative="1" as="geometry">
            <mxPoint x="310" y="320" as="sourcePoint" />
            <mxPoint x="310" y="290" as="targetPoint" />
          </mxGeometry>
        </mxCell>
        <mxCell id="TopPfdqth3kxaZBov_Pg-22" value="" style="endArrow=classic;html=1;fontFamily=Times New Roman;fontSize=14;entryX=1;entryY=0.5;entryDx=0;entryDy=0;exitX=0;exitY=0.5;exitDx=0;exitDy=0;" edge="1" parent="1" source="TopPfdqth3kxaZBov_Pg-15" target="TopPfdqth3kxaZBov_Pg-14">
          <mxGeometry width="50" height="50" relative="1" as="geometry">
            <mxPoint x="320" y="330" as="sourcePoint" />
            <mxPoint x="320" y="300" as="targetPoint" />
          </mxGeometry>
        </mxCell>
        <mxCell id="TopPfdqth3kxaZBov_Pg-25" value="&lt;font style=&quot;font-size: 16px&quot;&gt;CNN&lt;/font&gt;" style="shape=trapezoid;perimeter=trapezoidPerimeter;whiteSpace=wrap;html=1;fontFamily=Times New Roman;fontSize=14;" vertex="1" parent="1">
          <mxGeometry x="259" y="440" width="160" height="60" as="geometry" />
        </mxCell>
        <mxCell id="TopPfdqth3kxaZBov_Pg-29" value="" style="endArrow=none;html=1;fontFamily=Times New Roman;fontSize=14;exitX=0.5;exitY=0;exitDx=0;exitDy=0;" edge="1" parent="1" source="TopPfdqth3kxaZBov_Pg-13">
          <mxGeometry width="50" height="50" relative="1" as="geometry">
            <mxPoint x="200" y="230" as="sourcePoint" />
            <mxPoint x="260" y="140" as="targetPoint" />
            <Array as="points">
              <mxPoint x="242" y="140" />
            </Array>
          </mxGeometry>
        </mxCell>
        <mxCell id="TopPfdqth3kxaZBov_Pg-30" value="" style="endArrow=classic;html=1;fontFamily=Times New Roman;fontSize=14;exitX=0.5;exitY=0;exitDx=0;exitDy=0;" edge="1" parent="1">
          <mxGeometry width="50" height="50" relative="1" as="geometry">
            <mxPoint x="347.96" y="200" as="sourcePoint" />
            <mxPoint x="336.13" y="110" as="targetPoint" />
            <Array as="points">
              <mxPoint x="348.13" y="140" />
              <mxPoint x="336.13" y="140" />
            </Array>
          </mxGeometry>
        </mxCell>
        <mxCell id="TopPfdqth3kxaZBov_Pg-31" value="" style="endArrow=none;html=1;fontFamily=Times New Roman;fontSize=14;exitX=0.5;exitY=0;exitDx=0;exitDy=0;" edge="1" parent="1">
          <mxGeometry width="50" height="50" relative="1" as="geometry">
            <mxPoint x="324" y="170" as="sourcePoint" />
            <mxPoint x="340" y="140" as="targetPoint" />
            <Array as="points">
              <mxPoint x="324" y="140" />
            </Array>
          </mxGeometry>
        </mxCell>
        <mxCell id="TopPfdqth3kxaZBov_Pg-33" value="" style="endArrow=none;html=1;fontFamily=Times New Roman;fontSize=14;exitX=0.5;exitY=0;exitDx=0;exitDy=0;" edge="1" parent="1">
          <mxGeometry width="50" height="50" relative="1" as="geometry">
            <mxPoint x="410" y="170" as="sourcePoint" />
            <mxPoint x="428" y="140" as="targetPoint" />
            <Array as="points">
              <mxPoint x="410" y="140" />
            </Array>
          </mxGeometry>
        </mxCell>
        <mxCell id="TopPfdqth3kxaZBov_Pg-34" value="S" style="whiteSpace=wrap;html=1;aspect=fixed;fontFamily=Times New Roman;fontSize=14;" vertex="1" parent="1">
          <mxGeometry x="220" y="70" width="30" height="30" as="geometry" />
        </mxCell>
        <mxCell id="TopPfdqth3kxaZBov_Pg-35" value="-" style="whiteSpace=wrap;html=1;aspect=fixed;fontFamily=Times New Roman;fontSize=14;" vertex="1" parent="1">
          <mxGeometry x="250" y="70" width="30" height="30" as="geometry" />
        </mxCell>
        <mxCell id="TopPfdqth3kxaZBov_Pg-36" value="U" style="whiteSpace=wrap;html=1;aspect=fixed;fontFamily=Times New Roman;fontSize=14;" vertex="1" parent="1">
          <mxGeometry x="280" y="70" width="30" height="30" as="geometry" />
        </mxCell>
        <mxCell id="TopPfdqth3kxaZBov_Pg-37" value="B" style="whiteSpace=wrap;html=1;aspect=fixed;fontFamily=Times New Roman;fontSize=14;" vertex="1" parent="1">
          <mxGeometry x="310" y="70" width="30" height="30" as="geometry" />
        </mxCell>
        <mxCell id="TopPfdqth3kxaZBov_Pg-38" value="W" style="whiteSpace=wrap;html=1;aspect=fixed;fontFamily=Times New Roman;fontSize=14;fontStyle=0" vertex="1" parent="1">
          <mxGeometry x="340" y="70" width="30" height="30" as="geometry" />
        </mxCell>
        <mxCell id="TopPfdqth3kxaZBov_Pg-39" value="W" style="whiteSpace=wrap;html=1;aspect=fixed;fontFamily=Times New Roman;fontSize=14;fontStyle=0" vertex="1" parent="1">
          <mxGeometry x="369.62" y="70" width="30" height="30" as="geometry" />
        </mxCell>
        <mxCell id="TopPfdqth3kxaZBov_Pg-40" value="A" style="whiteSpace=wrap;html=1;aspect=fixed;fontFamily=Times New Roman;fontSize=14;fontStyle=0" vertex="1" parent="1">
          <mxGeometry x="399.62" y="70" width="30" height="30" as="geometry" />
        </mxCell>
        <mxCell id="TopPfdqth3kxaZBov_Pg-41" value="A" style="whiteSpace=wrap;html=1;aspect=fixed;fontFamily=Times New Roman;fontSize=14;fontStyle=0" vertex="1" parent="1">
          <mxGeometry x="429.62" y="70" width="30" height="30" as="geometry" />
        </mxCell>
        <mxCell id="TopPfdqth3kxaZBov_Pg-42" value="" style="endArrow=classic;html=1;fontFamily=Times New Roman;fontSize=14;exitX=0.5;exitY=0;exitDx=0;exitDy=0;" edge="1" parent="1">
          <mxGeometry width="50" height="50" relative="1" as="geometry">
            <mxPoint x="265.83000000000004" y="200" as="sourcePoint" />
            <mxPoint x="253.9999999999999" y="110" as="targetPoint" />
            <Array as="points">
              <mxPoint x="266" y="140" />
              <mxPoint x="254" y="140" />
            </Array>
          </mxGeometry>
        </mxCell>
        <mxCell id="TopPfdqth3kxaZBov_Pg-43" value="" style="endArrow=classic;html=1;fontFamily=Times New Roman;fontSize=14;exitX=0.5;exitY=0;exitDx=0;exitDy=0;" edge="1" parent="1">
          <mxGeometry width="50" height="50" relative="1" as="geometry">
            <mxPoint x="433.83000000000004" y="200" as="sourcePoint" />
            <mxPoint x="421.9999999999999" y="110" as="targetPoint" />
            <Array as="points">
              <mxPoint x="434" y="140" />
              <mxPoint x="422" y="140" />
            </Array>
          </mxGeometry>
        </mxCell>
        <mxCell id="TopPfdqth3kxaZBov_Pg-44" value="-" style="whiteSpace=wrap;html=1;aspect=fixed;fontFamily=Times New Roman;fontSize=14;" vertex="1" parent="1">
          <mxGeometry x="190" y="70" width="30" height="30" as="geometry" />
        </mxCell>
        <mxCell id="TopPfdqth3kxaZBov_Pg-45" value="Y" style="whiteSpace=wrap;html=1;aspect=fixed;fontFamily=Times New Roman;fontSize=14;" vertex="1" parent="1">
          <mxGeometry x="459.88" y="70" width="30" height="30" as="geometry" />
        </mxCell>
        <mxCell id="TopPfdqth3kxaZBov_Pg-46" value="" style="shape=flexArrow;endArrow=classic;html=1;fontFamily=Times New Roman;fontSize=14;" edge="1" parent="1">
          <mxGeometry width="50" height="50" relative="1" as="geometry">
            <mxPoint x="339.67" y="60" as="sourcePoint" />
            <mxPoint x="339.67" y="20" as="targetPoint" />
          </mxGeometry>
        </mxCell>
        <mxCell id="TopPfdqth3kxaZBov_Pg-47" value="SUBWAY" style="text;html=1;align=center;verticalAlign=middle;resizable=0;points=[];autosize=1;fontSize=14;fontFamily=Times New Roman;" vertex="1" parent="1">
          <mxGeometry x="304" width="70" height="20" as="geometry" />
        </mxCell>
        <mxCell id="TopPfdqth3kxaZBov_Pg-48" value="" style="shape=image;verticalLabelPosition=bottom;labelBackgroundColor=#ffffff;verticalAlign=top;aspect=fixed;imageAspect=0;image=data:image/png,iVBORw0KGgoAAAANSUhEUgAAAMIAAABGCAYAAACewEv/AAAgAElEQVR4AZS9d5NcZ5bm91x/05vyVXAkQc/uZo8fabWh//QF9D2llRQhaTVS70yr3Uw3u0kQIGEIWyigfFX6vFbxO28myelYxe4UolAur3vfY5/znJNeXde1VMh9VJLq1fd89Vbfr7+u/7b69b/5y/o8/zUHrq/1X3PMj1/D9+tj//w667+tn219HD+vf7c+dv239dc/P9d/6ef1+f5Lr/u3/P3P74Wf13v25/ftr/aPv/9bPjjn+lz/luPWr/3z49f3vF6P9c/r1/P7/7/r/flrf3zM+nu+rl/H1//c+da/W79ufUywWr9AIb+aXj9RqxdL2cSdqK6kqvrh/nxP8mvJQ2FY2NUJvz+vJ5WV5Pvu01v9oSqlvFKdlfKCUIojKQwl/r7eH879n/vgHviTx816EvpaFu6++NkPJI61NVxfN5LcI7kzcgwvsPup3bFVLQWR5KWSSuWTkbLZRGkaKWg1JM93r+O662t/v1EI148/OHe9WvvVtbhmVakuK3kB97l6XjuM15ar5bMb/+FkPKudYr0wP/yJA+rKV1mHCoNY8nlOT+VyqsXsWmkzUhAFEmsm7jGU6kiqOWkheT8+5/pCnrCBNevBbbKeda08z1XkS1szPwgUBKGCwD13bed3t8+teu6GbWvsuqxX7f/Z9VbP6fn2uqqsVZaVqqpSVVby/Upp092T2y7O6ta05gq1Z2KwWpzvF8WWyuTCiccPd8VRrHGtus6VZTOV+dy2MoobCoO2VMW2RkHU0MnxtfZu/cxJzcnhI+WPj1UtRwpZuILFyFXVhTyvVhD6TnZYUK+Sh7Dw4XnyVp/oTeiH8hDOlQ7VVaXZItNoPFMcJ2p3u4rCyI6vTNB9efLdfq3kgAVFbmuxSFwisA1jAbM813K5tEunaUMhSsVCcYDnKQwS+XWiumbRK3GNmkXxPVUVG4BQBGo22+p1+xqNJ3rx7IWur8+1Mexo0O/JXwmu5wdiC4qy/lc2gQW369kmFKrr0n52QsU1pTzPVBSsna8kjhRGCKVUcH1VCsJa9Y+Fs+YaTmB8MwwIvhNez/fF1maZpzyXoripdqujoPZ0dn6s07M36vVb6vfa9swFCliH8mxr3VpyTVtvt2tu39BXu667ThSGts6T6UST8cSevdFIbd+4JwscWEt2zGcN0HdnrHw2iierMFq+kwGUzBSndq+teaZaZVEpywotFpkWi4WarVjDzYZTDFMOlILrcT7OgWCgrJX7wkJ67CcKw/Ox16Wqir0tnH0MalX1UkU5V1UvtFiMVXm50ritRrSjwOuqrEJ5YVOV3/tBEYJqqiiYS/FCgTJV3lJlvbCTe0GtMPJMEdgQ/tmDm7CyINyMJwQ1wKqYQHP3CHityl9qqaliv1InSuX7CI4vRNQewpTG+14ZEHwWucRycq3VdWqf8+eqqqnKslba8BRjHW2d3EaFdSlfCCcLUbjFZfPYBCwExr72FFSFEj9UXE8UaaKoHCmuSiUId+ULS+jLV1nVJnAVG8Mz8ljoHP8wACpN0XhuBI1/JvHZXFWR2fOFUarUS0zo/Dp3CovQ1LU5E2fUapV4EdtajIOnsnSeIxCGgMN8+V4tv8oU17VZ6UgjRd5IQblUah670rLM5cl5Rh+DxXNXrIezTvar7225c3qsF8+LgOeaaFFe2c+pWkq8zB1flebczIHU7IunSqXda7Cy9qV5A9aOReKa/N0tmjNKnuLQrb+CpYp6rtRvKuZ569L2ta5QBBQLA8C/ypy0rVNdqq4QetYOrx6rVq6yWqqscpOt0K/l+4WyfKwwXKo/aKgoPU1nM+XZQpGHV61UKJYf1CpMeVdxROjnCvyFFMwV1bmqMFNRLVVXuUwRQqwzAp/Iq2MJl78WQJMNT9y/WwDPLuCxgWyAHygLQsVBqBQBs/MEKk3TXYRk3zpFNzkyZUPj2XBblJUTxutg4CspqjzFtbN4HF/w+7pQ4JVmiXyshApTOLcpzrKzL4EZmJnqcmqffjVVWHkKShbXF8KnmvvHCrEpaCOi4oyTqYLnKfDZkFJejZLwWixvLa+YSvnCPFZYVwqqkjPKI7TknovQjuFhTaE8Kag4h1MOntYrsYZsKgLF7yt5Za6gThSweTx0fi0/H8kvG1LpLHFYcw3uPbRwx7xrhaC7cIN75Z8Zi6oygeZ5eDr+hlH0yql9z1rHWGlVyrG4BfdRCwULEGiTAoswzej4VWShjCl04Ck0ZXAGydQbo6nQjFRQLRSUc/mFLz9LzSjURa2qcIIfBqE9ogk9yuyVEkpQI/gYHPaENcvlI6dersDL5RelqnKmOh+p0fK0u9lTHEc6PZvq+PhSfhXbPtVlLIxrvQqlLUdgsYMAC1y5X2OVK24YuVj9zWOxCGsSuwn2AeuK+WaZuS/CDhNihMTDSprzEnaGZfMVymeTeJV5ZM5p4uAyj9X5/NpXxcOZIOAhfFMqH0tQhgo9X2EdySvd9cyG4A0qvBWWtVqFHjwoz+XidhbZXbtUXZYqCGEyLF5hSuSUZ2U5eXazogiLC8/cvtuDusdlgarcvAVm2xS/KlXmmf2e4wKsuLcSeDmXXhW+6pJ1c2EJZyxtrQIXRpnCOQGyWyid56kJrSLWjL/VqkruPVNd+iqLhVl0y0+qQFVJmBC53Iw8xpS6thQFZUdpTdEtrMHDsS8Yi1ysQ+SHCs1ocXOlqnypoioVRaECQlIs2WrbzVMinHhecoCqdIYlxMMWqgo8oa/AQmfyz1J1kavm/otCFXmkWTNyK888gDOYngqMS5mprDITes8r3XMqW+WsGGvWJ1NVzpXlMxXVRLXmCrtNtTqBGu1IVZ1qOpbm45GqnHtsKAhTyWvbtpoimIXH9SKoJGLkAWUkD4uB2gdoIgsXrxSB0EaqUALLEVbhEStjCRpuPDRhrLxKlT9XjWLgJVaunrADAbdNMaVi91fWim/N6iFc7haxYPyutoSRRDZWWboNNUVhE3zbM6cICB0KxfbWlcraU7EKw8o6UFn5ynIpywnr1vfF/RPSuaTPohNyhVXSzIajSHz6Fn5hfVyYYIbB9piwhvvg3lBg335G3mqMQG0L6gwH50NG60oFltDCLkAHFIa/uXVF6yrOU+GMfVV+aJazwCIqAI9QVlQKgx9iaxJStgJZRJk4lmut43Z2H2/Es3z/PXgEhrcCfIhs7bl/Yn/W3W7aC8V1ifVNwblXW2Nu2z07eZUZH+61IgEnl6ilkPNIeeF+VxS15WBY+HXyjHw4mSBUqpSXS9V4OeWq60wleSthM57SKy0kIgQjP/D8QgoWqoqpwqhQ3EykMJPCWo1OoMGgoWqeabmcgZOo5txe/mNFYPNDeV5sVh+wx2XezuITYpQriJXAAUEhm2eha0uczPGv3D3rFYrXWdzHxge+CWllIRV2B41EEZze2Aa5pXPKwO8t/uSXWHS3iQQ7leUdKKH7m4UNLDLKRDhlqYXzOhYaWchCDOrbGRGcso7tMy9DFWWoso5U1sTxKzTG4kaUhc12iacJuimCS17Z/JAcwYTRCRN3zaZVFeetVJSRssK3zfaDVT7FjXK/rNvKH9YFAkkyj3dBFFjflRdBgSxn8JSXvoKSpDa0cKWqMTaRispXTkSE4qzWoWCBLNxCIfEednffv4YkPAzYy9XfzXDV8vzGCm3xtVwBT6wZKFtkz+CpAExBcfnZnI1F8opYW8AFnp09RLEq7tvlVGw4XhsDtMxRCPaFnV4orwBnEBVnjPmZ9SjwGh55ZaGaHJHQnfComFv+iYEBzIlj39CzJG0qR0mDUp0eaBoIWKYwrdTfaKqchLrOamXLTMViqdzPTHbM3NbeytJbvBKZcJdYchN2rDYaywG4OI7DYvANiuKrBl5jQSwKYQNrlR7AXa18FTebtV6FAizQOrE0F72yjGb1Lbiy7VzFrywo3sAl0GYFEOqauNBuxu4Dd+y0DYXmvhAtLCTWFY/gUjvzSMSpCkxxsJSFJcZ4DKdAoC5SYKEA4Q0xMRtmoSBrYnkD+h6YG2eDEWpbkbpQ7S2dx6xjUzTuhBzA0BZbPqz/WjgI70sVfm7JTxQH8gJcC89s5sjuvaiwjjhnFBdFrlRaTJ44b1c4NI77wNuRM2HYKiw7//DyrJT/gwfDMvNL1pfzcU8IbV4RutZaErMHHOfidh+LDpLGfXmxQassRVHNVZUlYLRJPwgNOY5ve1+oMBADxcS7RioKz5QAR4GxLKpMebGwUFo+oTfhEEamlBfy3CS6hDsLhVGlMK3VbJRKW1Kz2VCSpKYMhG2hAXTsS6k4lsK0UB0QTpVKO6G6g1CL2VLVNFO+nCnT4gdF8OuGgrpl7gJjyCMVpoEOqSCJMiET1hEZQzlWbhXBQOrXZt0E2cySiGnB082tVpGqgpiex8T/4jaxqz98cEbcK/kElt7gOc7LGoJxVyTxuEBPZUViTILnXDLxuR1vXsfuUlhMwzV8IEVzuibQhHyWyFUs/lzyctvErOTVxNUkm0TiJLmoCX9fQ3kOo0fgyDksjCTEw4IjhDUKhDCS7K0/HawK5EkeRehhz87NE996uQrCR5L9oFIcpaQeyjMUwq2tPX9ZKjJIMVRJUljEqkoADMK72Hw2iBfXBimpCGWJ8wOMU6koxGsWCvzY8hlyJJAT0ANCWARvUU61KGeKeA15o0fYNlNVLVUFhJqRlgYqtJX4DZXlwsIVeVNVVWk5JQJbKVPoU4fg9ISQRAFtZdO26qJhIWWez5xyZKnKJerqcjuiDxdNYHgJX+aqo7H8cKxGu1K3F6g78NXqxmqkDo52Gu3CS77nuQmffEIjpMwvFaahGkNf6dxXmvlaXC2tzoAEmkfwLR9gURcq6kJ5VSqvOQFiQbiEC3SZusFbCOsKQuMkWHU29nsLjRB7leH2BZpNDF7GksXiDg3h3kisLDz6IVK1n0nezZ2bS6/NBeM2CT35yp04a29aZV4J62NOyuwf9+TOwf06FeFpuCi5jgWIqghFqgwb9/0z8Dyoorl1Xo41MXdMkI3ikbA7aC+Xc7sUo1xYEqooSitKOSUn1EApfwjjUHzicFsXkmjWzivM+1hCmMlw9iKn8OCSUu47SBL5Ickj0GCubFGoyCqtwmdVhXter3Khm+UjeGtbYBSKkKK2YhmANncVRb78sFKYOHh8sZyr0Ei5d63aD1UGJOesx0RVOdESw+W3VIV9LRa1xouJqmqmTjtTo7UwGJPE1fMXBmtSMyKcQsDzZa3R2UynJ5eK/V3zuNJSeR4qmzdUZZ48NLV2a7jM51qCYAVzNdulBl2p02+o26vUaktJq1QUL+Vh5EichSdxntxZVxQLWWH33d57eJNOrcawVivzNctQfI5dKYK5RrM0CImzxC5Zo0jGCd1mmtHHslqSbK7B7bEdYzCLKd/a7bPZJQnR958uQQNCM/1fHUIoxT24SGeV8K1ib6wsj2H5gf0OocNF+y5PsIN4DUriwiBTFBTBUBBnjREC3D+JaZTgXSplRenidyw1AKOFaO5p14qIRbQaBAU+SzgRKoMKVGKttDAkjPyEcIrnzYuZsjxTXNSKMSB2DgAH4mfukdjYeT4nuKA8FAKJ2UPlFhZJjSRWvpi5QqB5m0yB5THUKKjW51KQGZztwB/8FoJHmBWoDiJVPoU9tI97dtV4lLMql5rnwIwLq0uElTRfzLQorlSGE1c3iseKWrHigPh8oRIEMU5MuF6+ONHh0YnCsFB/c6itfaryhHWlQaueFypaweWs63Rc6Oz0Qodvx2qEhbaG+wYvU+RcZDMFXqrATwSilpULzbOpyuBaaStTsytt7iTqb3TUbuNliBFnqrypinIh1cD/oGSJ5EUG8a9BFgsxqbGwMn6loFGqu0k+Fmg2LXU9mZrsuBzBrCcLtRZUF1ujUmT9DvHAmCKsRIzmBlaCa4eZEH2viQg4Sa1VZV2sizw4p+KsKcLNQfbP7tMpG3At3oYghRyD6IEEGG+A8NhXhAJrZ/fxo+uTmwDX2Vl5BldI4rqmBCisQZUr5CKrXLXWchwQHoTUXdBZE+JUntmJF3mCIWlWcQelcuez66yVw0KApYpioaIILe9wnhJFoCDEHeCqHfKFySUU9ASWjnqHkm1qqSCqlWWZbXaVl8ryQnGYWiKIElSaqqhGhoaVBmsXBl2iUFXt4Oo6qCwUgp4B9FwXvsI0sqJTQb3DH8tLaoWpr2aSK2yC7qWKwlztRqFW01MalyLZz4kEgkB57unxs3M9ffVAaVLr9rsfqNPfV6tDGEY+AcJTWOGK5BfUKcS7+CNdXL1RVEdK447SRq0qquQllcKIcLvWfDHXopoa+tMd1NrcC9UbFur3S6VNFH8FTGIcqVQTjgEwEIMZxEnYSbJKzYo1Rj5c2EcEwJoljVidQUP9caDLKyc/PyiC2V0OJqkjqXFFIvbNIvmVIcS6cGE+3Aa7E62u6BTC/XVlYZF3p1h85QMLwXVMJlY/f3+WlXSX5AEIzNqy49ZNyDBuaDQLYriiJd7G7fFrFYQxJu6uQIUSmEJaWIXaISSEJwhZoTIn6l1ZaRQGikJFwutgQWBSPIJbz8rqDdyiZRzE+15scm2Lby9yr4Wf44cuNEH0DffHkFhSSuzN03EtVpeYHWGJFYbkF4WKcqZiuVCp5SpWj4yegsCAmswXV5rOTjVfniuIQeVSs8bESn5ArSWQHwXU2Uywx+NaV6e5hSDbO111OrWixkLdvq/+Zqhmm0qr86zyMwX+UoFXWc3Cx6NRtPRI1ANNZrUmi5Fevr5QEtf6bHSqOhgobQP9XqmqRg5c8cm3YvNiMQrVJDxbaDS50uXoSr06UExGG1jJTlm20GQ6VZBm6vYr7RxE2rpZqdkuFMYL1TWUiYaCoCEoMAE1aRTeZBZRRs7I7JyM+j45Evme22/LTT28aaWk0dbBrS1V1Y/qCAgGxSpzIysv4EKkNbzpUJE1woOHQAnWgo0kINxrIf9BKdzvScLsk003P03+wM0hEO5ArKpJlJ3FCbEJNLpggkSxxRXCSDAp1GA/yTPMuawsbenhERxobojR+nhbJJ6DSxqHQ1VGsadUHbpKN3CpQ084JaESuY87v+W1do+INbwWPB3oE4rA8+A5XP5BomfJmkGTq7qCIVGADSTgFAtdldTgQGJ2j2AcuJV8YaysuFReTI2rRPK9nKPEPTVSpyhZPrHXBeFU7V5Tgy1PQeLqOlHkmUL5USQ/7Wh0Hejw5aH++NUTjS/m+vCjfb3zXke7B7W6my31t4AfS/kR+4XQV4ogJrKOlpjxHZV0ULCmwrxliNV05ivPSs3BG+z+J6q9kWp/bFwfoGcQLl+J0mZLvX6kVifUYlJoMefZEhWlr6xYaFHPtVzmqoKl+sNIOzdCbe4VavcWCpOZeZnvazPcG5EDgG2NEaGgaFaIG3H1BIM6qEFQ7WafUJREYdgxoa7rWHHUUZp2TOKcR7AqJdYKSwv+7Qo87LuzBYQxXMgJ6xo+dJJv/zto0Sz46meWk3iY8Mg23RU/zIhjFa3ghcv6kSKsnsVirjX8Zkk4joEktXAMVDNzhuNY3A3wYQU/FIt49vvawyruhz9kXsmpKIpAxR4vgvKjQwBAhX3vkn5yXB7Z7g5DYdcA1eJ32BwOBaHhGwcBglfXFWSviaEeQQa/idci5MCNsVXcoYJg3VRPLPY2SJPqQcIGLxX4M6UBiEahZqulq4tCT54cazaZ6PZtT40GEHcuP14oSTINNlvaOYgVpiBQtcLYM7QGuLPwEk3nlU5Oz/TgwQtdni/U7FS6+e4NdQdd9YaBkrRQVs4chcJoEWxEotBQceoihdVv2DNDpIpEy2Ws5cKDzaHlAkQwNhSt9jN5IaEU4AXPTkUYEm5DSSMS8HBZUNRaKMtRglCLYiYQJGDY7tDX1kFf2weeOsOlwnQhP8ic9wSdw+iCYFWEfnDNEtUVmCmQaS0/oBYzVSUq4Rg66i4t+Urts66go4SajkNdHF/ruycj3flslSyTxK3oQ2ali7ww9MNgTIyn2V4WB1eACJCQ4RFckuvcPtaQ+NBXaBVEh7vba1YoTV5g+RBqXkf45byCXZ/EKqQw58ITSwzwINAiKD6Rq0AbQNiL0kIKEi2ubRVqU1oWHivuCFwhoLIVeGrBrkQpDfVB4AtoFaBAVG9DZaWL1mviSoNXHURsoZJ5EfM/iikiUcEG+65LI7n54ObhUlXNBkzlRdeqScTrmQL1FUV9LRa5FuOR0rCrTtw1QSmqc0XRTM0O+HegKM0UJIWilIQevD1SHPW1zCZ6+vShHt4f6fPPp9re/gvj1kRxrrhZqdkr1R6UisDM8YggYaA1XqX5JNbxyVxPnrzR6ekCYrEpys5+T/u3h5aMej68sswEFGMbkodYXO3oDRQmKbwRgxMaTae5rq8yTce1CmSwiFVmofKlpyCO5BPiAduuAAjL7TBiyI4nLYtc8+VMPS/VsphrPJsqiBZKWkttHbS0f6tUbxPEaqSaUIbzYNGNBgJ4R0gJuNDWchFrMcPgBQpjKN0UxdmjUiglYbQxJryWqmVD01Gm0cVSr5+PdP+rEz18tND/8D+uFGEVSVgybJaOWByXaJabuK80fo9JLg/jst6VNUfgMYoujLCEz0JNSybMVQUWw7mkExNrIZEpjVMozKxZXysSIWQgNMSnjulKbpDnhcqsMIWgfgBklC9dQxEPzgpT9sfXUNl2tAV+S4GNG+J3qC+LFqqkYOIlzsJVkbERM6MSOA+2Ngx1zhEUoQKFfmlIFdBwoUKz7FJ5vVCjUStKl/KDmcJwoWZ/Zh4ySRqKk0Dz+VKHx8f6+t5zhUVfn737Vzq42VTtL1V512r3WgYNhjEFpKXqCAJkpbhqGpVjUWR6/eZcL55d6WD/QNPpVFEyURAvNNwM1e5X8qPZyhpSwHLwaFXHurqY6umTYz17fqHpTLqxF+qddze0tdNUnEAvoJZCTcaTF0KYLA2B8ShYmsFaGirjDBfrW1kIky0LV60OqHfkms8WGpRwq5ou2qUQsobZa0h6TUVRpjAmCMm0zObmheZAwGGmrX6kg9tN3XqvqWZvptqfyyfBhqkG8EYuptS8cIUHKNtaTlMdv53r5bNTXVyMtLvf0wefbqm3mcqjqEm04TVVl21N5w2Nzj09+fZE395/qYf3j3X4cqRKG2Z8XWhkYQyELPPzpgRFDm5DsQqBBKpEkAkHnBf4PingYa0XIBLVaDwAVUEs9XJBY4RrpkF3LB3wCVNIWB1CwxU5niKnWW+S4oIQqFKE8Jl3qawnJ8sdEgX+DdEMLpGRs6Bjc3MsmpHNqKxSI/AVReDLvubLSsu8siIc2DlLvKxD5ZYqxyq9pnKI2AYXU6Sht4LlITfh1MCiCyv5RwG5TqmsuFYZXitqhWp3QTXmajYdL55kOo5dNfnVq6nenj/TH79+oGrWUVNb6nT3lHQnCv2R0panbj9QEFMFXajQRJkhTIGKbKmryVjn51NNZ6WyDEGcK0zmanRqbe42LeGtfaBEODh4XOjo8JECvXk91r0/vdDRq4n1Rb3z3lB3P9hRfwAJzhXK4FIFXmShkOfNTVAtBFEhT3P5PtR8IG/qAwixU4ZV+qQ8nxrnn/OEXmqsX5c/OkYrdBt59I/4aqSpgmCpxXKq2cI3ODONKg22N3TjTkebu4F4FsIb8g6EnmJhXTckNc1wlXmo0WWgx9++1YOvX+rRw1MtFjP9d//9p3r/4/eNA2UFzbpUvox1cpTp6aMn+u7bS31z77WePznRxWmhRtLVjdt7PyiCFX8IQUwRSuORIMjEw8SFWFQsovFCjLuzUgYTPdbec2GNxdFOCbD6FH6w5HgJZJuKqnU8wULEM1hMXpj1Jk53EBjJYG1JWOHVSsGmIQL6vjERF8uFFaBw4Y4j5CknFocAUnha5L4xOMGJCXngyBRZqWUGJSORFyZa1g358OC7W+rkgdJWU+3+QElCeEbfg2doRhjGqjJo1VKZLTW+OtVkcqqllyuKaxXKFERzJa1YvQ1P7U6htJmprme2YUGwUFnOlFUznV+e6fS8VlgUOr881ulprq3mpTbahZJGJs+fGokMoaMnhKQaGslkNtPl1UTLrFQSw5jkLwslzUqtQaTuIFDSoB4yMzJc6Dfke4l8L9Z8Gur5d6e699WxJmPp3TtNvXt3W3sHDbU7ufwQzwUk7Pg9VvujiotfRfvr3OUihEaGPhVWjFwuCs3nc0PcQG2BJct8IV+NVRKLMpoZtSJkTY5UeYqiWD2as+KJxqOJFkupH/ra2G1p71ZHnQFUH9aCY1EABBAFbSrPO/I0UD4P9OrVpe598Vy//uUTPXx4qflMuv1OqmZjU3G4rXJZaDT1dH01NkNw/6sj/eGfX+jpo2tNR1ISxNrZvqGb++9q7+YHPygCHoRqa1kgLCA8ZqfRAmNeEhwg7tCVUYZVfusySZIrYR1X3BDotgHCi1CFRqIyyjEWvCAepyBmBt8ScQtVSDY5Hjtm7FcHVsByVBmZFceJ5xWoSm7l+KggDoyM2ZiBIHFOdqtO5ScdU67ZfKF8DAVAajU72traUbPdVRjFajSaagyWGuwv1Gh2FDealmASWwYBOUWkyE/kwY8B2ZjPdJa8NC80GR9rPh1rVs3UNHcfG/c9bYGHz5QXE7s3P2gZQW02m+viYq7JRBqmIGJTTRe59qLSurOaLRbaCZl504CVwOPVuhpNdHE1sfWJYzg1pfJipLRRqd8PFSWZVYfZoSoP5XtNU/Js6evV80t9e/+tDl8sFPmebt3c1J07W+oNpaRJEjq32oLFe9bVtw57V1CbwzHMy2AQbY2LWpPxXLPJQgVMaNY9K5RhoIysSFhGLsjBK2XAdahWo9HQxsZQUXKmeeaqwoOthm6/29fejY7SJrJRmOAb27akOJeqrlJVVUPFsqnDl3P90y9e6Nf/+FRPH4NOSbv7saJC/RQAACAASURBVD766Lb29m+qyBO9eZXrm28u9MUX3+rhg7d683qm2bRQHHQ06DW0vbmlve09DftbandbP1YE5w1wrYHx+e1vrk5g8X+twnPCaqGR+7PLEXhWcH3TDgobJFtUPdxCEL4g7FhoWg25cVtQmiyA5KLYLPCymiubV4pW3CRUEQc/zWpVeaacwhLH+1jFxL6StfppoFYUWXKJFfSCpsKooePjEz18+kyHh0fa3NzWz36+q8H+uxpubFkHWhTHLu+oKqVJW4HRjh3vB6EkDwktLqXsH6iZF4oCmJm1xuOR3ry91qy40C5NS15sPP1aY6sBgCoZnR2WUulpMsl1cVma5fJbnsK4UNyQ2r1I3V6sOCXsIDl3XhdSW+1TGPJ1PZpa/Dub5+YNiJuX+diS0nYXgwO+TtGTMDI1Rairtq7Op/rTH57r66+OtJiSGzR089au7ryzrU5vKT+ciiTZB9aFMmL5FV1oDjXzIPQBREBtNqgslFfFypaexteZVWXZD5RoMS81Gc2MTFfXU+MHEe6y7wTWoIZwyNJGw5CqKI6MFNjuNvXOezu6815P7X7oQtA6MWMGQQ+PBEW+Kn1NRoWePHylX/3ypf7pH5/q1ZO5oiDV9n6iGzfb2t7bMA/w21//Sd9+e6QH94707MmFJfTyW2q1GtocdrW50dfmYKhm2nAcK7oG1xQLsnrSSOL2wHyg+UHj8PA7w5aBVlfdSjygJaAUnYyaQSwMJdhVfJdFaJZ6OltqvgwNkSLeLwtfgS0uoYwLgXD0NJAUdaIFTRpeojhtGA8GmJP+38vrC52fXStbLm0xtzY7GjQGStKGGq2WWp2O2p2OCQJcGHKBV2/G+vrbl/rq3j19/vnP9flft9VoD9XsDO3eaa8kMSSpDsKGWXrjUFj24CrKICTE2kYyDEOlvaE6iz2Vz5/o+dGZpvmJmhsd+WFsOYWRD6EWhDA+SchD5UWiySSyphBbcKqojak6w47aXdcLbvkN684eeI62TX5CsjudTHV5OdUsr9SKKvlxbnBiHIdKYvwGhDaHwgFZAp/Op9LR61z3v77Syxe50tTTjdst3b7T1v5BpCS5NhozOQx2DNIffKeyImfIFfqJg40BGfgEbuaFMIrLQpPJRPP5wlA4qufLeaDxmLxBalm9ZBVRQBmht8HACxJxPFFpyFizJ92409bN20P1+gAaFEKRQwdjW67G+mWxiqyjl89m+of/+Ei/+L+f6eSoUrfZ1+7OpgbDUI0o1PVpqd8fPdLLl2/17LsLXZxT/Oxoa7hnUQB5ZZoGikNXZCNKgObt5z9in0LvBSpl84AeSfjLJdk8LZow+BBXqNUuWWVtYrqUCJdcXqsc1iW8ehppaN4oPM15ECy4kbeotAZaQuem0ymMDIEgj1DuqYWQDtpKkrbavYFNfyC0WiwWOr74nb548Ac9f/ZMg0FPf//3f6d3Pv4L7e7tqdVsmyVNwc0Q2qitcprpaiq9Pp7o+GyqpNnX1s4NtVp9s/zG3GTF2SSjFNNDx0aT1hGTwldxSTK8IKOqUDsIQ7U3NxR2ezq6vNLl5K323oG9CW7vqySfsIECVJShSZO3pJpNI81mlnApCDMl7Yl6mx21eglk+pURgvNbCUoEiTZFKK9uaD671OXFwuDdOF5I8Vztbl+9TqSGXxhlQnCOQLRMqJs6u5QePrzW8yeZZmNpMPR0+06im+946g5mIncJ6LOABImhCzJuw5iYXgEMiyw41NAeHiiSn42RnGk0vdRkOrZqCgjcMks1GftaLKGCd43NS5wP9EzvShA0jUtlDfTtmfo7mT7uefrpX29oc6ehuqJltlIYguKtmmV8yIip5tOmnj/K9f/8xzf6f39xpPNjadAbaHtzqH4nVSOOVcx9Pf76Sienp+ZBqypVv91So9GxcIxCJybDuibL2hXujLdWa1GNf/AILoKzVbS4FNQmB2dHPUqIW2g1S8E/hxLB9UFIQHvgscDvp5yepG0lzbaCKLUuLWu59JnqAKec2PJSywVEW6ZjAFrHSuK2tvdvqdvbVu0najS6lhwnSaLxZKrp/Ne6/80TffvwW926eUM/+fyv1epuqN3bci7OeEculKDSC0b95u2pXh8dG9y2vb2vza1dhVFiiJjVHnh8KxrTbO3iXywrFhUo0ZlAoFQX4oEiwUBoRD2FjZYmWamLq1zT+dz49I4IiHJRXGPcBMiYr+kk1yX5wRiekRSntdq9QMONtnr9rk23KUESVgbHAF6qtEpUFrGm40pX55mFlWGvVrvjmRVst8nFgIJBzKCWLK25hfD2+Hiibx680csXC7vm5lakd+8OtbsfKW3lsqEaGACGEwBcEMIVhZZLPAvDGiwtcAv0fQ3JuQRqMdPZXOOpCykwoZNJqfOLhaYzSI2RyQ3rR1jloodV8dKr1OkH+uxnHdVeRzdvd9XuAIsunGeqMyuEhTyXEuXLhl4+W+of/s+X+k//16FevZyr2eio0+8pjH2LFuAaVePaIOp8mVi9qN3uCcMYxa6teDHnvJ6BKM0GPCq8r+znqIEBXdURrMC1okFQpMqLzMhehDFBFDmBJVeAlGbUCl/ZAroxNYZYSaOhVrOrJO2o1Rqo0xuaMuAZSKUp8ExGFxpdX8gLUl2Nn+v18Zk9PAns5i6ft9Rs963TirEsJhBhYIJ2fHqms4srZTkxbKQ4pRfVJb0oYkA8bZAzYUWh87MzPX/+TJeXl9rY2NDu7q6hQIABxPs0hsPbd3Vz5/YpRRAGsgVAxkgQOmBJP7wofgbZChPFJOMk7hm6xBLD8cdzYjo41FNF91URaDJe6uJ8pMWiNKHvdCL1uh11e101Gi0FwdyIY5yJ6jfXsbi9Bu2KNb4qdHVJxVpqt0JtbcVCsJst48UY18byC1CWOtRsGujF83Pdv3+kk5NcnY5061ZLd9/fMuuLN8CuGYFwxcpcLnxdnGc6vxir00/UbBDmOsGHy2MWw1YGT+9rOs41HrkiP3Tx68uZLi8Ka3hBp0NYniYnKAsrimFxdHq6xj75yU0jxUG3AJwBISJXtMkpOXSVWHnW1uGzUr/6xQv98hfP9OpFrmba1nDYV5wQdVA4c5V6chDkYbgJ4OGYyYTqjBDC2E0TOCC++v2uep3WKsyrFTdTRVBbf1AE5waNClHmyorM8HiL+WlWsTiPhhNExz1Yxg1XvtqtroZb++oPtxWnbcVJyz49KMC2sfAAa3XDltq9HSXNgb55/EL/+Os/Wvz77//9v9fdT/5KcaNjvB03FAt2ZKBlTiHpWC8P3+hqNDaF7BAW9AZqtjqG/qCcUD6MIyRPIDQnJ8c6OTkxMtY779zWzZs31G43jfaL0mAFDRgz0F3Kl7loyuHpUou7WRrXO2x5ok3JIDxwlXPBb6F3OpKaDSrp/N4VpUhymeZgOHYVaTxe6upybIaD+Wb9Xkvb20O12w5XJ4QgMqYXl+QUAfSscSZRvgg1uiARrZRG0tZGqr29VIMB3nThGuNB7a1PIFRZNvX2Ta4H90/1+PHU4Mm7d0Pdvbuh/VsNtdpA1TQA8WxoOezbyrzVqxcTHb4+1613BtrZDq2Zx/ovjC/FnrsW0bqMlC/hGNnltVxUGl0vNJ04yNtyxgpomVCtWE0tYcKGzBL7zUCNZk+FVcmcEYB6AlpEQp1EQKUtnb4J9cffnuo3/3Sko5e5Gklfu7s76g/bihJPrTRVu9W2VlqGknkBfCnGBblJKVzQmAXMlhqPrUek0UxMOehkI9yPG6mC5EeokZWXVnwgQgGH71NDtMjQhIaCWlYy8IqogUphrFarp42tA+3s3lCjN5QHH1wkioQF6/NgWXx5lqQUmufnevT8WL/9/QPj2f/0L/8bxc2BFDTs/K6IRZucp6vxTIdHx6YM1+Op2u2W9m/c1nBrxxJUklQslvGZrLlbms1nOj451tXVlZIk1vb2lvr9nhhWRfHNiHiQ68paUYRVz3V2dq7r0QiugPq9hgbDjo0AYTGtSGWqTHIN2kFoAI6eWYGq1YZDhLegt9Yahw1F8j26sGJdno90fnqlfFmq25d2tru6eXtH3W7D9RR4JOtY18zyMzj1kNXyItB8UuryPLfkt9+NdOdWVzdutaxRBRYnCKUpDgBLkGo2SvXtgwvd+9OZLi5qkT69d3dLH3y0o/5GaVBrWVEnQKjZy9Kae85OF3r+dKzTs6WGG8x3I+dZMQGwCd8jfZ7wABT1UISyJA8ANco1IVnO4JMFiizJpiDrmqWI0anGQ+UmpEH1MytcFqJWA6S+yKYGDUdhR5NRrPtfnuuXv3ilhw+m8jXQjf072t4bqtmCk+UrsZC6YUPlHB8OBgi1IwiHjkXgzk2PNHwnZ8QIJ5M4VhABVETWbvuDR7C0h/huXTUmcXSFNISBEMF9QpLigr463Q1t791Sb7Bj7gUqMU3rYPnruJqwAkiQc2Htzq/GevDwhb6890Snl3PduHFDg61barQ35MctBQWEPwuzzZpPJnO9eXOs84srK/I1mi1tbu+qv7FpnomeW9x8zujAAI6LS65fvHihN2/eKE1T7e3vq9lq/ugZeJgVDbyudXT0Rl/84Q96+fKFNa2/8+6Bfv75p9q/caA4SW3jKTjac8i3SXuj65lmMxAsqQWRLMK6MoGvMPqIVQG8prJloPOTsS7OJ+bKt7YSHdzEeCRKCE2hWFQLeWGuMCS3WFrjeRC0rE1zMQOmzC3sGw5C3brV1P5eU0m6tCKWFSDhFEF8KwKdnka69+W1Hj+a8ogabnm6daev23e6ShsT+R4VYmpBJMlUzlH0WC9fHevx4wuLq5Nkw3I9eXNj07rc0OhXRk5crqbUIQ9Uifu9vjptwi1yhFyLhacoCSxWNxmyOzFkwmBeQBnielpE7f6BYaBzQJdWqMtL6f5XKMFz3f/yUlXe09b2nrZ3NtXtpuYNAiw6SBSNtISzAe2vLnSNYodeWihrLH0YBbT40t8RirwTeN/JKGG147c5igVPRVhsHCNuzMGhDgt3iaT5NotDayVJU73BtnrDXaWtvvWx+v6KB7KaYkcMR5wIVxz0hDjxejTTt4+e6tnLN+YBdvdvG5oTEXMTJ9oER9igfJa6uLzS4ydP7SuJbq831Pb2jjY3tq1CvarT2LkDUwRP4/FYT59+p9PTU91556bef/+udnd2zFKAtwPJsiC4/clkpkcPH+l//Q//i7795msLdT755K5RnY2ZicXA1RowICtqXV1f6/Ts3KgjvX5gkJwN+rKK1jp0csluvgx0dTnTeJxZgnr79lA3bvWUtmDJws1fWg+BtRp6C0NbcgqGFeS4wmJxCldQ9nd2Q924lWg4RPEyEwCsLIk+wMPVdalnj+d6eJ92SEc+u3mrodu3iauhmjhGJjUPWLOOu+NpMq719MmVXj2f6Cefv69uf8viadAb2LSMpyRktkJoVWm5WIrKMks47A+0t7etTnOuTudKi3ll9YV2By1HMB0VxVpjrSDn4HYnDUgEAglatrDxMWWR6sXTkX75n57pD7870fVVrO2tAw0GHTMcQVwa4EG9hBqLjbdUrYg5WjB7g0DUKCzntXlcdPsxDcPB4UQEMBuwSq4k4PKg7z2CTYAwLj44sePkrws8xOC0Hzo2Y6A4TTXY2NVguKNGoyc/alpFEboDltkKKcTJNMksIaI5Hst8Uej4+I2+/fahTk/PbP7ozu6BBsNthXHDJjRQh8NKgc5AVqSM//r1kSaTqRD0drur4XBTvV5/5VLBuHm9q4PMZpkuLi70+vVre9CtrS3dvHlTGxubliCZ1eDZrcBX6urySo8ePdbv/+Wfdfz2UO1WrEYz0MXlpQmiFapMCUCkauVlrqOjIz1+9FDj0bVu3YrVTBObkMDmghbBp8EzkkxD/bi+XlohDSz/9p2BbtxeKYKX2cCAmCTEoxawtHAEawWKBDv26vJc08m12m1P77zb0e07eAPCL7rOQqNkrDvdTk8Lff3VtV49n6rMpa0t6ac/7+uDj4YWkkXwmIy6AXWBVqSGrq/n+vabYz24f6mT01rt7qbNp/U8epEz0aATEkbBHgZpZpbtjFmihRX3Ot22haudtq9Wk9Au0GKJkMXGUrC6VEDNyUHTGEVORJ7GObG/CCfY0mJW6+JkqT99cap/+d2xTo6lZjrQYNhTpxcobhSKGgwdA+WK7bjQ5vDiERg6BkzrW+7hQD8CsBWX3op7K6E344z3wUhTkHQIkv1vWLJFDBzoBlIRC9JrbKznHHiKDQjV6w402Ngx3B+OObChMTtdL4wpAsxNG+VRLlVmC+v4mo7O9eLpQ716/kST8bUoCO3v72o4HKwmV7j8lBCK9WII8fXltc7PLrSYLSyu2xgOtbW5aUkSyA+4sMWv1oVG0jfRm6MjXV1dqtloWOg1HA7NFZqCsggMoSpKw5LPz88thKJAxD23Wk3t7e2apaNbjIiIRJwZPngfCnovXjzVg/tf2TM0k1jdTtMKWyUDZ20YlUObSELH45nGI/qapeGGp/0bqba2Y4vVvQD2ZrFq9Cd6dElzFPjW61tkuS4uzmyMydYm8OdA27vM+oTHBOeetkig00RlTsFprm++PtbZ6VStlq877yb6+NO+Dg5S61lgOJYTDUZZIKgdXV5E+vqrE718ObeQttVO1Wi6maAIlXURgvqR7xWywb2AEQAlFoubBQ6VJpHSRmJWmVE4ZjyZ5Fc5Sg1KC1fN4kMWw8ZnUqh0I3VUpZpMQt378kS/+82hXr+k2j/Uzu6u2t1EIJxhDNTr8lObNAKPjPNChYnp7CPvQVm5gOPGwRYIg1VdCHjf+E8OGl/LA2aRDwuN2HBjfoJagArhdnLgvlp17BLGRZErCittNDrqdofW6sakA8aGEDaRfDoYM9Pl1bkWs5HNTm01GirjVGdvXurpw3t6/eqJ6mKuzUFH771zS1sbQ4MeaVnlQSxGq3yNr0c6PHyto9eHmk4m2tnZ1o2DAx3s76vTatumWqhDCAZ8WkrX19c6fP1Ko9G1ur2Obt++pU4HqJPk2Cikdg1sAxVrO//RG83nM7PAeJCPPvxI+we31Gi0VxVWID6L+nVxfqZvHnylJ0/uqS5narc21eu2RVxqk7at7Ego4Wm5BO1hEvjSwqK7Hwz0zt2BWh3oBm7ECOHPbDo30lycYuiBYkFXIs1nc705OjF8//adod67u63BBrDv1HoZzKvVoRbzUK+PK31z/0rfPTnXfJ7rzp2GPv1soLsfdNXfYF/mbniY9YAgfKmqsq/xVabHj+e6vJBu3Ey1sdVS2qIYWJrlxfNYeGOTMXxly1Lj0UyziTOKwJPkCc2mr2aLxJdBARgbBJ8E2VWK2VastHkCKDfIG8Jq7bqxFstER4cT/eGf3+r+n0aajUPt7Q60tQMTAHTHDfEy2TS+vsmuHW9WfTWImmtg4In76bCLo9jC2iiAkoOBpTfcMZY5A/e6/nA5gjWtm8e1F1rs5kpeViXmKaxLqfKUNJpKk6ZRlEGHEF5AAqz4cr7Q82dP9Mt/+gd99/iB9by+e+emPrz7rk7enujpoy81vnyjTiPQ/s6Gbu7tqN9p2nxQtN14SMY8nev05K0pwcX5hVEI+r2ebuzf0KA/MBcIOQ0Lx8OB32er+sGrl6+0WMy1f/CODg4OrNWRuBuaAO6TSjIbslxmevT4sZ48+c7yka2dDX300Uf62c9+rv39G0obbdHzSnsgJYfJaKQH9+/pT3/8nc5O32hzo1K7AebeUmgDpFgDFtpZLQzEaDrXfJap2/X12Wc3RY4QBBOb+cNom+k0M35MfxArjEj+aHiHZBhrNhvr9GRisTj9A/QZ07JY1/Qw0CiDQPc1nzf1zddn+ubepS7OcsE6v/VurA8/Gmh7J1TSmNsUcZi4DDCz1sjM19V5rsffXOnxNzNdX0kffhyr0w8VJ/CkEDlCIrrBUFzyJAccjK6Xmk4ZfJzYGH6srjXBVG56XJYzSb1UaMRBlh2YnXMCa+KNCB2d16T10/NbGl/H+vbrN7r3p2tdnEvtTl+DQVetTqSA+wGnJtzM8YBYe5dcW7EOgIeByWQcnuuBjuhnDgMlUWIVZWY0MRiOtwMxr7gOldbg0PceYTWXyMHLuDNoufTdOvdFOEHs2mq21KaQFYP7unjeaTrhRqHjt2/121/9Sv/b//w/6el3D9RsRPr0g3d1ffyB9Sgon+jGzkDt/lA//exDHexvK024hsPw0YQg8DTLFzo6OrSwhZY+Gry3NrfMI7RaLUMfUAQSH4s7UcLlUoeHh3r27JlZf5SA+gEum/t3yb5DvFgMQiss79bWpvp/+7d6/+4N/e3f/o0+/vgTdTp948KjBISIC5Tm0WP99je/0nePvzFiYq8bqd/rmEVUPRXVUBJry6c8IDu6uK5V1wvduDnUhx/e1mAY28ApgIDJaKE3R+e6vhopTXc1UGp1ioBQZ6UkNB7t7XX0/vu31O4wsHZsPQF5Pbex6HXd1+jK14OvrvXo24kV+LZ3fd39qGOMzk4HTzUiAjcqB5baCxoq8kCvnp/rT18c6u2R8WsEDBzGuQ3PtbTFOENEztQCiEAh3M01nTA4uVIQgL4AAUfGWwKGni8Jm4Au3RuN2MgZlNaKkwjMKpS1Io6nMueYSofPlvrjv7zV4fO5wqCljY0ttboNBbGbvevoJqnlBjadgkmAKAQNX+YNODejVSmixRZaAvGTTxhTgD9ipIxHtwrZDL51xh+vsEKNVmGJxW+OQmFcfsPP3QbHEXz7nrqdvkGVhEI2iIv4vJJZtq+/vqd//KdfmOWsy7mG3U2V2UwnR09lFn1voFYr1WD7QJ9/9ol2trCQrjUTy4OAUJ9gevLJMUWxY2vSgb67ubWpvYN9C3W4cawMCbSZ4Eo2//7NmyNLlEmAgGb3gU6bLbNGprgrP8imwYT89LNP1WoyNKqhOze3dUBiPdy0+TiEhzzjZEqI8ka/+c1v9Lvf/lYnJ2816EXa3elqsOHqDa5Het24hGeINL6eWn7TaGS6+/6mbt3eUBiODSoEIj47m+rl8zNNJzMd7O/J8xo2lBY0ZDnPNJ/MlSTS/sFQH3wIT4r+AFApirQQ32tr6D88nOjJo2sdviiUJtIHH3T1ySeb2ttrqplmqukFVm73RBILNRyS3HdPDnXvy0NNp9Lunq+tnY6SBgjfXJENcHJhBJaWmJ7kf7GYGtOU+4cXlFI85V1oItAvEla8Ln0lhCgruv4q3MUW0d5qg9DwIgq0mOQ6O53r/pdjff3HY03HnsgDe4OBIujqNuqdd09A4dhH3r0HY7kejgBLwCXJ7DnGmhZRo42YoqB4KKKb0m3FPsvYLLV0SKnlBStFgHBJWR9YDfKzEQ1WbFMKgFSU/ShRFOEN2i4sgmO06k+grI7VfH34RkdHx9afC77ebCWKo1plNtJyVqj0iSdje3eXVqttgowwu/oF1UtbNUOuQH8gUeFGKYwN+n0rjqWNlPDSZl0CveG2Camms4neHr/R1fWlNjc3tLO9rV63Z2xD5H/tjo0nT5UzDvTJpx/qzp2barZS9Uh6QYA8XxO469ZPXej8/I3++OWv9atf/kLUJ9B6Rg5u7wbaYHxgozDqMvM9HQW/parqaDZZWp6zteXrvfdpoBnLD5jfGShbpnr54kyvnmdiHeqyaQk8FrTI5ppPaEOdamPT17sfNLW1N1XkzxUggVReGWPid3R2Gev+t8d68fxKBU0uw0iffLCnj+5uqtdhCMBIishHqAUlqqqulouOXr2c6uuv3+r5C1dv2NptaX9/aDCtJdVWGCTsJV90I1x4G5WsDHQ9m1O6VJgkqilcRaEN/qpDKAuR4gZdfq5oZspNr4gl9258I+MnyVECb6hKAz19MtYX//JGR4dLBWFb3cFASbOhKIGew7icxIaemQUwNBKolHAMg03OhHI4ZYCkaW9RZq2/8K9KZXXuqtyQ+FBwnBy6TZDE+Yxqs1IEKBTW2lfyFkWQr5b2yfjxXKFoDW526LHlpojTKMaAJkAsceMgoTgsmBPExDfjGAGPUf5nQ6DTTrWAWei3BDLSareMX2Iui0MsDpXKnIRsbEoAqoMlAVnasfJ635rcjY8D2xMN8GATZrq4vND5hXv9/v6edrZ3bFwIT01SbdaAOsIqzMNDDDf66vU7VjnnZ2vQM2jCUY+pGfz+97/W//G//wf96cvfrxLqDW1sZtrYCtTtVkri3JrGbQIG+Dx9tQXJaCTfK2RY/h1g54tVLN3QeBTou+/menvs6ZMPdxVFPdXV2AbclmWmbInVc8fu3wiUNM8U1EsIpqppCQu6Wiy6evrsUl9+eaQ3b6YCun/nZlMfv7+jWwdtJTEQ8sSExFOiqoRq3tXlRa2v7x3qm2/eajQBKWN9Y/WHsaIQmghgpmvTNUtqWH8kU4TC19V0qQVM0brU1Xyq9Jpx9Kfa8K/EAF9ic6tYQ7lHYEW/CbOE2Cuq2kDDTM0OdH3V0MMHR3r6+No8DnvRbDfs/eDCiDwUmJPWTeY2rWghq4Tf5MW+dyE6BE6rEZCgI+grrpjxI6CTAM3DBYMdbGRFV9Cz93pYh0bM0iknM83G1xbKoAiLrLQBGHVWaVF6ilo9O8E60+ZCaBYXJ06ErtDv9606iYUnc+dmbTxMVRnFIQybKtTSxuaWtnfID7BSuFA0gQcKNJ/OdfT6rV4fvjacn/a+27dv651333HcEiPYGexgQs3xk8lYr1690vHJicXst2/d1t7ent0TnoAPlMEpBPGtGwrF/QG72VjKHB4OekXBkIQVFGqkb779Vg8e3Lf6xPbmpnZ3e9raWajboy2TN/bAEJBcstK05DBogG6tmbq9WjdudnXz5kBJQh7FfUQ6v5jrxYuJpiNP7XbfqOT08bJmTOwg1Op0YnW6B9reaisMMyPkQTsBkWK6xcnxQg/uvdWDe9e6upTuHIT67Ke7uxOEEAAAIABJREFU+uCjDfWHTCinF8BxnoLVyBPe6GV8fW2ERDrmmCG6vU2xLraeAEIxKw4a0wCLSaTgoEhCRetVXlQ2x6jKpjo9O1M2g2h7JPlzxfEt21MQI3pXEH6ACcsxYMjSy24KkWg2q/XkyVs9+Oal3ry9UiPtaDAYODmJVh2OyBDyZZbboT3Wo47HwUJC3TNvgEdwe8rvXIQBiZENdc+BB+FYO36dLNsZ3H+WI4yuR5penmkxuZBX0wmWW4HLixIba7i0YVxYCpc/mNSuOImchmQU3P7WrZu6deNADx8wBxNXF1ssHqe+uv0NpZ0NVV5DN27d1ObmlpHmjKlp5+LchDhzHb5+o+PjUyuo9Xpd3bp1WzcObiiOaOZmgXH1zrqzINQBnj59qsNXhyb8t27d0s6Pqsk8PAu1PmatEHbvvhuGBTZdUPew52EjIMh19ZOffKajo+cqc0+JAQZNm78ZJ3OLiWmrQhk5wEIjm68KxDnS9m6og5st9Xox75Ghink680Bvj8d6fTRWO2lpuDW05iLpahWa1gZbDwZN6zvA/ojkmJrBquK/nId69fxKjx6c6/QN70Ykq1h/+JNNbe9TOWcgL/Fxx6E0FDvp7vMyMRgsSZZ67/1QH8eJ9nY7+snPDrS721aasqYYBEJON/CYhJTeBZ/3kFj6WswY6EtNJdN4dKVitlSryXuuxeoxjaOTKoodI5eogXAXD06lmnZekmxfLY1Glb795lDfPTnRdFJqd7epZhNipLPsXBcFoFMQA+E+XYK8VgK+gkaxt3y//j2Bj+3JCsFDXtxrzVV8bxSRA+BhPkwRsNpoEe81xeQ3aNg00dhbloaxIpMOTs5MSwQR42dQgmUd/I459TA9P/vsE33z4AudHL8wYpoXUEltqtXtq9kdKkg62tzaNvao44g4jSIxRZBGo5kOX73R+fml3TCKQJGLZNlIVBRG4JCwxDb6ERrwWN9991zn5xe6eWPfPMjm5ua/En4Wggfn48eKwM9mTexNL1YKQ15UShsbff27f/ffSjUNLgu9evFCiwUzgGqHEq1nCAHl2sa5MJFxicNNX0kDCDNRGGeChKeqqZNjqrmnOj0rNXyvocFGX3HiiGdAhFhkCmJRmKjVTVUHM0NuiNeN9aqWxiNfTx6O9d3DsWYTqd2Ubt7s6PY7iVq9qY1CgTLjebAzHdHQhQrQskP9/C9v6sOPQ6PMI7xbWw1tbTPjdLIadwmSBBDhrDpTR8xQ5Hhshrax/3wtbRBypw0rdqhup2G1JveGkdAyqEM4mSGMNgCmbmq5TPX61VQP7rshBtDRmzBJ7R1NEXZo1ivhhT5hCbCrSBPEG9l91Ru/tvJrQ8fe/qAQeLgfvIcp98orsIfmVOy/lSLQTxDUPWvkzhZTN5HC99VsN627izH9fhTabMo8X7qEiBs1nNm9CQUDtOD0fP7zz/Xs6UP98++YcXmp6/FCu1sd62CDJNVpd9VsdyyWtBjQFBJ3z7z/UhfnV3r6/KXOzi+sD5jKMNZ9Y7CxEhgn0Hgh3CwdbCTVQKec4+DGDaNVUEhjkVwhzSXLpgUrRfixYtCQwyLx1kswJOkZxvNQ/aaf4YMPP9DHn3yss5NjXVwearBF/E/CR+nZvdcbYRbCAaID3Xp7O7HJeWmKokE/gIQX6/nTN7r35VubMdTupbbGXkhvsAsxgS5b7chg5TBxoRYQIHUcmnUW80ivXy71zb1rvXjq+rj332no7vt97R1EihMS4IWb2FERoztPy/Q7aDL7Nzra2PrY3lMMSkSEwQupX0zcoF4nHW6pVqQ1Mxylr8Xc02zieGlJhCWW0oavvf0NvffegTod2McQApm/inHAXLlGfp7LD5rKsqa1UT5+dKGH345tWl5/0FO7TTMXb8Xr2l4tVF5Z+XUkYgKO+4OaYZXvHzwE97j+XIc/PISDzlc7b0gSoR6ho+vztr8bnEAlk+abgFZLN6QL90RsRhYOZztKE+VlqemCcedLm0HKzZmGGaff0nC1mqnef/99/d3f/53ef/9DI3ZdXk91OZprMiuMudqie6jZUmEJrHNLuEEeYrksdHFxpVeHr408R9USQYQr1OnSk+xYhniwlTpbZfbkhAFPl8Y1397etlyFxeCcLB5CjULwdf19ljF2cGmKBJ8dZ0GqQqcW/sZxhlwehEf6+KOP1Ov1jL5BUs7bJzkGJd6BgbQUi1gVegVKpWmpOHFDv0DimCBN4YopDC9e0DgvdWjcb1DJXXd70erIujOShmsv3Ah0jE4QqvITXV74evp4ricP57o6hwEqffDhht7/cGgtmZWYwr0arkWiYxPvXFM+b5qRNnL1+1Kvt1S3t1CrTWw/kefNzIJTIKPQZetnIQYzpWqbWMEQgBm9+Qzvjciv3HNubTV1cDBUtwuyyNZQMGN+D88FxrSecpcYYnZyUujli4mRA6GItFpdkwneOxvGMPUAF844HhB7bYVKx3swTeBnE+gfefi1IrDn7hPo38kmf3PhC/+7aMJ5SRclfB8aWSJjFIvV+1oxgr2SFlmuRVHbe17NGdnBtGF7bzFuBLjKISyclAou2v3Tzz/X6emxzs4udHr8QidnU4XJWI3Ojpqtvo1PwYJavr3qbcUyXcznDi06u7AOucFgw8KiwYCxiS5GRpBZJKSWJJuEFpId09/wHiTKLCbCzWbySespX1kcXkdizTH87Ih5txR1I0eTMFfsFh4dpygDCHBw48BoG6zJ1dVYWd53EK4xQOmQY34TrphNAKqja417BbfgrZIinZws9eL5VNeXzPsP1OmCsjCdwvVHM7TMjAuCZPN93MBfEmTerznPGzp8vdSXfzzRq+cMxpV29iJ98mlf795tq9GkZY5tJnEnQHYxcGVvS0W0wd7NVWniusLol0Z56Yqzt05wlXEU10AMg7NdvJ0tK41HmdUurKgF6zNiNmuhre1IWzupWu2l5TfcL6EutBPeaAVsH04alO8ia+jF8yN99/TCdSOGQKWp4iSxYQwr1MQsOdA4YIZTShfSYqRcjui8PCG6k4kfhB9ZXH+s952fnRHkHZccbcjeEstKBqvQyCmLQwfoT2ZDmBkEFAprdFFKWenCEHg89I0yntwYOFbIcFaXmyScoKr7F3/5N3r58o1+eX6q47OxvDDVzoHUaA/UaPUskbZZRjTHe1CwfU2nDja9Go1M2TqdrhXFmIWDcDsvwJcVAlBWury80ovnLzWdzPX++wd69913RfXZpuVJVmlkETgGr/D8+XP94he/0BdffGFe8OOPP9bf/s3f6Seffqp2t2FewVAH2jIJK3xyp1DDQd/yIIZO0XONxyCHMk+ygmcNeV3FnFzTbQK04FTZMtGzpyd69vTS4vr0TmwUAi/kHUcJJZBclB0L5d41EmE2r2bvxZbo4qrWo0eX+urL1zp+O1V/I9RHnwz10U8G2tkLFUdLlfSY49psKgnvrYCHqxVitPjOClsU2BAWx23CmJkC0olocQevBBzhA0WotJwXmk4KZXNCIzyW1GgUYs7C1k6o/oBiGgUzjnPvy8192DUNyQlU5YkNMjh8Odbhi2st81ppp6Ukbdn7oFHk5AMlxPuTQzoukZEp7G88FyjUOr7nCuztWiacJ3GRAK/h93ysvzqvwWNhJNxX/m4ewc5q+KtvEBlTLeIU3joWg812gs7sehpYHNTFG1a4jWLv0DIXuhQW73300cf6i7860pMn8Hm+VnDBJLdE7e6G0kbX+EIWhgC18pZIRWntla9fH2o0Gpk8wAbd2dlSt9u1jWKPHELgXCbT65hf9PKVyw+oHdy4cdOqz+sHX39FCWazmaFLf/jDH/SrX/3KvM6TJ7BhJ9oY9vVh/64hHDYeBRauke2AW1cJNTuA+tPllBIGIORu4DBr6jqW2RSW1dFQyioVPPvxJNSjx2d6+ZImIxCpRHCMeNdH+g+IVYGhGaJmcgxMTAsnA8bU0mLe1NHrpR49OtfLVxMtMgZbJfrsZxu6eSdWFJNU884xqYNaEWWS3SBxlVY6qyEeepVCn4Z5Z+mNewU9xMbroBhYYDbUKQojblAEyIHTCfUlEmByi0Jx4rzB5jbT9hgUwITvfLVHBtwbgc95CDfa5vRkqdeHE52fM0OLUfGM5WkaBcK4WmatnQdnfVkXWxsLhdwa289rSDVwAAf7/K8/V8rwI9jUQilCYIPsMTjumO8VAQSJTzwALswubu/GSEyOz4TqSrFtoVevXqjdHiiOO+r3KdLQO8D7WfH+v3hjBCVSb0AC9ZHeu/uJvnv6TPPF/1fWeXe3dWDXfuOiVxKsoiTKkptc5EmcyVtZ88dbL/MJ5tNmJZPM5M049rgkmbEsW40qFIvYC0gAREfeb58LWcmjFyWZBC5uOf3ssw9lymqqBAgJWk+4EuIDUe7+wb52Xu+6S8xc6cICoVHAKjxxxEQayzcsKVFqRREOD44cOq1eW3NOgfcIzZ9ZhshByAsIifAK+/v7zg943e1b74jm3Wh028EAxhnFZneBLaTRqqw0jckqqCH5DOC/kGQFCI6iQVwLcHU2Xo5QpklZnXZW+3tdPd040v4+q57kezc3ByyBxBYef4aFEFAsOlWmGXITK9nQ5WVZz56d6fGjQ122R54xeOfdsu59tqqVZXILlmgQFEGJwgUEGQELRIIRAyg18xLE93gH8xM6fncJO0xswDeJ8dwNRhligouJvM5lzwA37AH063TV1242tHodgrOOy7woEL0S7p93URNmIXzTojpt6dXLE+1sX7gXUavV1VxYEp4f4+Jub1oSnZVFsYjYdMukkaMILx3hCHujT8Er3laEn597+AM7hbf+CAyDE3gbt1lo5BU8MWPs6ocHV6BiRxho4iRKCoRKA3WvOnr9eleV0rwqJZgryrGWaQzCEJ3hoRAPTjU/v6T19fdUqcx7RrRaA29Tig5uGjo4tGBkZNDT0cmx9g/3vMsLZCch0bXVa+KG4bUQWpd6J2Bdcm6+7e/tma1ifn5R6+u37D3e9gJcPSHKrLyGwB8fHzt0wuIwuod15z14JbtjWKEJS4gquMUE4/498wOERTl7HRCq3ooJK5KVB2sT+ctkXHIlKEnqYhx649mBnm+e6+SUoZnEFRaoHmGxMO0JntfxOu6H8mFMhbHMYjCo6/Q40eOHl3r0pOWiw/rtRB98NKd3P1hQswknYNdGCLwW/QoKHeQzEGTFRh7KnUUvAcx4aTed1UTlStm5hkMaUKdcuNuCcb/TyMIDOYSfeAeEnck1eFffYdh/rahs8cpUjz6YQywaYdgRZm85bkkXLWDfr7W/T3KeF6O35H4UZ0AmUJCBTYRnxc8crrmplwp2WqAx5XyKJQqoRUQIM48QT+2tP2faYH0JA4Os8jnIBl8RGlnnePIIA1CJgYpJUZVcSd3BVPuHR+r2eiqwtLle0fHxkSrFPTXnV6NOTplyglsOrYwaLRj1mj1DpdZUtVbR8sp1lSo1ex8SObwHEoQl6zB0f7Cvw4N9hxvzzXktLS+Lv3MOQSK7j4tlSASE6mttb+84MaOZRweanbs8rJlH4N8ILiOGeAPwQtC88HtCL6pSKFCTASEzIQD5je4kn8XrCCl6V1cmBhgOSAirVrhypaYMdX4G6dEVh4q8hzIgcJSyBqOqiwYPH23r5JglIsTWOS02a4LaJZOFaQ3PQxMSq8jDoa+AJcXD5HXeGujF876eb1y49FitS3c/bejjz9bUmKPCQm8DgSORDNwNuLHz8yudtYbqdttWMvoB3U7HQ0Wcc3O+pLt317WwUHVIGNWL8IHE3oRmPCNidkIjAIgDRrOTqSrVghaX6B9A4YPVhjWb+x4eBKAew9TGK+HBpzm1Lq60tX2sszNGQOs2ogAgu52uShXQpSBDZTpLFCSMF0oeuUbIceSHtrqWnhD4t5Vg9uz52xYqRMcv9DHCx4Rn+W+KYB+R1SSb04DRTOVVqjAit6jz3UM9ePBQm69eanW1ps9/8alGtamOiyyeuKZKpaQqQBeuG0Jx1jGBDWNoo1Lyxpdqra6V5SXdWLuuaqVi60vMjuKgkdyMi/Nz2bqfnHjw+/bt23r//fddscEqOfnNZJSnvJfNuOG28ey5dvFObubdcQUI643wx4RVdKKpIJ1fnGt7e0sgVOlEA9clqf/lL3+pzz//XAsLy8pD3ciyPK+CIuFDsgu6urzQ670jj3AC+KnVsyqwkhW0ZRIbMXlYfgBGMOJA8HxBhbjz6kJPHx3r8gJskjTfBP7dUKPO8E/AlDNsyyQ8MuYqa7QP2zXZ+bB3cKEHDw704vmJQ7Xr64n++m+u6d69Gy7TjkZ9W9LwSoRYOYchTx4f689/PtD+Xt88Swyr9DpddTo9FYoTffxRXUsefW1YUex1YeRgtTBVKx4kw/bjnLrpPDIPuVRgXrmo66t1LSyUlGchIGfspea8H1BUEDNzLlDAsJvh5LDrEPHiUqoUsfiEgtxLuu9Nh8rA7i2/WCOHOxEahQBjK2gi4CFQ+lTQKYda2GcS7352qiahzPS8XB0j77PBmVXo3vIIDJmN2Lqe5DWBRKmxoJs37yhXKOnFq0M9ffxYz59vqHe5qltrq265n5/uq3X2Wr2VOe/FIkHEa+LeuQDieFYHFfMZlfN5LczN6+b1NS8ccR7BHfUEFDXqnoZg2a+6xqg35+Z079NP9NHHH5qECcvEwP1spRXhC/QrDOkTprGMY339upZXFjzggoDamnM+rlhAWgZsZKjl1WV99lf33BP47LNP9Xd/9yvd++wXWlxYsZFhqw/DJFDFUBVjGwyC9PDHlzo4OiRdUnMpFuNNJ12T52bdNeb6se4AC3veNTAZVnR80DfOfmdzZEryWhV+oqyWmiVV8kVlJxWzP2dY+G4HTd09OJQgNLjqS8Ax7v/wQju758Ib3L5d0McfzuvmGtCNc2Wo1zPrbE+YaDAs6qKV0cP7bf3uH/a1swXuJkZAIXnD21TrE81VpUGv4EYq3VzvSCY9mNLnaNszQcI7pNrThl5mpGJWKiQjNeuA/JqqlcwWZs4pFrBDJaBM1wwThGjsRchM53V6NNH25qXOjuEIBZJTUz6pqTl/XWs3bmpxMRTh9IRx0331CL8qoIF5+igXaPCg0kRhHcJb4fwLh668kueNXTekH2uPUbTwm444rWiFp3I0AgnqLDQCxUnRq1CpanF1XTdv3tbiwqpdOu6wc8nSBuLZrLrtrs7zZyoVyh7wJlZEO7HYYNQL7MhiXpUbyupPyPsKBc1B1FutBcscCRENIoLwKfOpRVv1tWuruvfJJ1pZvab/9bd/q/feI7+AimWm8SHYcArRRKMixczC3bsfmU2BfgOewAqZLgJ0yJJkTQN/59339Jvf/MY9BkKilZUlN+uacytR8eI9LMceE+YRp0rt9kTPn+3q/g8/6eT4QJWK1GxmVS1nbM29bpYkmaUWsLbhITznm3MneXezpZfPLtU6pRqRUaWSMcCt3iA/oQkXWBx6DrMHSLKMSLHv6+RoolcvWtreutT5+UR3P0n02b1runWr4UXgjIwqB0QGKhygfySleUOtnzxsa2dLuupUVSs1PDvAFsxc/kJLyz0tLs0Zgq5cX8PxhZJpUOKz320qiMBcZfTcOqHxzFoXilMtLRa1ihGsALtmxxk7jqkyQv6AFadqBKV73bsNjg5P9OLZmS5bE9Wrdc3V6SYDn7mh9977UItLC1ai3lVbZ3BSFZgtmIc50/0YwkYDPB1m+e6gDxHUW7lhEA/kKUk69xLZM5aIkJHvMIvur8SoQaQDbxSBuJpFb8vLK1qBN37hmt3W3v6xTs/Pddll2dvIYQ8D6ewTKJUrqs/REYS6w9XcsMJpTP0muWTWOZ91M6rsAW9nUJGk0AwZE8ZknBj/+te/1icf3zM6FW8ASpUpMoZwCHdmkSLD+RsbT/Xy5WbAKm7cMH8RAzwYAaqEeCRuFOEXlQUY+d5/9wOt34RukH5Hwd/cXEYjPWgE+xkkZVQZE/KKiXa39vTgwX39+OC+Ls7PtH5HatTzpnFhGbs7pzSkSN7YqsO894jwra5ep6qXz3b05NGRLlowuRVVq+Y1N1dWqUwuAN9OW5r0VQDmkKu6n+B8VGWNB1W9en6oB/+5p+NDqjTSB+839Yu/+kBr18Hzt5xoA1GG+nIqmm5VHR1NzQ0EGzYLQhq1eTXqTZVLhH6sZOpocaWh5WsN5Srg9tsaTs490ukCpWP9kq+DftJoOtFV71JXg56jt7mFvNZuLmlheVE5FoVM2hZ8gHdUzuzsbRzKSlTTeFTW3u6OtrZa2Gut31rTyvIt1arL9uIrq4sCU3Z52TK0hucK7SRd6vl61XvrqBaG2HN8vhHrVBOQZM8rR5jDczBfL4FkOleDr0B+CMWjIkfkEq9/owhLq6uqVUtaXbtu7iBowWGtyJcqWr12XR998qlOT4+0slDTyso1vXvnXd29+7GuX1/3kLu1NWXHph1vxZvK9XmoF4nRKTdSukM4Y9A9yl9AAEjGgC/86le/cmgFjj3LitRCJF5vEqFMJMlbW5v67rtvdXx8aJfK/AHegGNjxWwpXIbjYuOLz6b6VE/qsWsBq++hjpyTMRJ8xk0JjcAwFbN5nZ+e6S9/+bP+8ud/N90LMWa1KNMv5o1VYT1VhAFYGBSMGw/DHTu+zk+z2tpsa2+nY/a4YolhpYrHLsHijKYD5XIwWUPLfuWKlNeh0nXPVNQ6SbTx8FwP75+4kXXndkWf3ntXa2vLKpZoenKrSWpJrilZ1tXtVrS9dabHD1s62IdwLGejBaylUMLKSrliTXMLVTXmV5TLV710L5tvuMvNEWGhGIyyGgwoZJR0fjHWaaurTo8lh9Jcs2bql0lS8xITFoXE1hwiADwDqAS2JTErPvJ+tSePT3V+NrJBWl5ecz5HKNjttnR4dKBWu6XXu9t6/PSR2TuSpXmzhkwZzQUQSTjEf3bxUWAhGY37bvV1/4OyLZ8Pjo3XO7AyJi7ey3FCofg7wiIkxFWj9fV3PBBBKZRWvtU+ydjK/u//8/daXFnW2emRSjlpbWXJSeaN9XfSpRsFW3XX9tOSFB6AnblwEj15/NjzApzf7GNx4xDeEpJxOkYIupRJQykqV94/7GQtqhZxAVNz/fzww339+3ffmq3io4/u6saNNdXr1TQsijAKrfdXOnATlSQqSCgXqW1Ke0jJ1NYk60ofs8ZYj077RI9+eqgvv/zCzBXTSU/E99UKiR5zsdxH6qvExODsA8JBSKV8Va3TqV6+PNH29oU63amKpYKqtUS1Rk51OtjALtjplmN2mnNlvpibBO9rVe12US82LvT4p1Pt7Y5ULRX1yd3b+vD990yewMlmk5oGQ94LuK6kwQDLC/fpsR4/OdXVVU4lpr3KBRUqeEBmevNWomKlriS7pPZlNbb7OJZgIUvf45hXAOx6Iw2GHc81H+zHmljAe6NJXscnYz19AnT8VO3WiUPmdjv2RZPDsWCw2x1qMiloMqzZGwwHVVUr896cdNXtmNS5ddnS3vGRBfdg/7V293YM6oS7CqZBysCm7qHU6e54CDjCRLWROBi5whNhzPAGCHraapqJwFuyR/WXUJIKXWxnfaMIi8srRnYS57tv4DZpVnPNBX1cb+jGrZsaXHWoH6hczMfapWrVGmfXM4XBANqSoqEXyCBw5a1Xr/T0yWPPNzgBNGNauCfqv8B4fdrGG1FlCJdnpSHRBebrlVYhwJ1OVw9/eqhvv/lar15tOgdZWlzUB++/q1q1/IYYjMYXMdKsk0gcnvOgEM041CAFY6XwAS8gJKGCKidJdHx6ogf3H+q3//gHff3Vlzo53lO1ktd8o6jmXOI5hUIC/flYkB07mfOxUCGYvEs6POropx9faWsnMDUoQWMho+Yi+7uWVas2vU+GCosNg2HPBWkCZ2pNx4cd/fD9rjaeHJtG8dpaU+/cWtf83ILalx0dH468TKXLatUJ+QHsEkNtPL3Q9z9s6eWrUyW5mpZWl1RplFWq0WEGaUrYl9XZaUaPH7GkEGBgR5kpiz8Gurxsq9MhZ8h4/JalK1fdnF5u0jVuqFQsu8v99OmFjo46JgcY9AYa9Ia66vWUYdcCjBzjielfWASeqK/hoK5aDRr/hqDqPGOaiEwoX9AwgexgpN6gK+DzhVxWa6tLJkcgNM57+Aa5IaLgm+ZCGDp7YCcz1LzD2OMVHAjZOKXhj9OB1LPgMXiPvXgcJ4VYoGUxfollt3V3Zp5zx7gJSVZ2gaE9E5Py4SS7LHewNhq2zEI73HxiFOn+/p6rOnCQMuBCrG5HTjXA8TSVwkCTGtcOSx7XkWo0F+1mh4FjIFP7Zqj44osv9OOPP1oJSqWilpcXdfPmdVs6wFYx0MEFR4jEQXOzm+bOuU8xjk2ED/zb9Xe5V4BFuv/Dff3hj1/om6/+04TC5UKiuUZV8/MZLSwWNddYUjZTdWmVMVQUAX7NPtiJpOR1pvsHx3r6FLw9FZhE5SphUcZlV0YaoW8/PhoH63g678yOOYhOJ5MrbTw71oMHO9o/oNQLQhMI81hbrw40fnVkFClbYKCLgXALHiUYIfYP+tqjYZUtqrm0qPmleRGSlcpw/JAPRW8CSpbXryc6Puqq32+bMIHOc+u8ayIEV80yIz/TTFLRdLKklRXICqoC/9jtxkivxmUV8gtGrIJgpTFHU5GiRbUao5qUT5NpyauemClpdy40GHZVLGVVm6urUGnoqtc3WRpjvIhArVL2EhADaNMye+q6o2HDg03l6P9TCuSSdrYhApYqawgQDneiU8aRKTKM1Z2FRtTxgTTwHBFEJ34Ij5kIEPVIOnBTkbSHAti8GBENXigQj7z/9OxE33zzjb799htvk4S5wth0FnT3+547JtQxwpEyq7dYUv+OcMkrfQj10jgPT7W1taV/+7cv9O23X2t//7XZMG7evKFb78DJdfniAAAS5ElEQVTwQPIJdDjItXKEGjxwjuGzd3HG03aoPDEwCSkK0LvqOYalQbe7u6Vv/uMrff31V9rYeG6murm5ihq1spoNlKGieg1gXEWtVjS/8sWgl2lfddXtw18afYxnzzp6uXmpXg+BqLmfUioHqvPwsK3Hj6YqFOnUn7saM+wxsE8nv+Dqz+7uqba3LvzQF1cAOea0s3Og0/NdjaYknWwdKmo0ohQI1eJVrN6asri8rlt36ioUKW1XTH5QZBFhpuCRUnIdgwmJ70zHTlhJnQdw3rlyCWOcNZXK7DiGqBh4TMPbcLIscinlvAcOhWWGJOcFhgXnPAzl4OXwjYQ25Jvs0piOoHwPfFqhlFenk6hQyqgxV1W+WPY50jFmChHZyLrYEQxbfobGFmEc3Xq2YDukdknVEupQKYMS0Agl/DGjN3AMhvwDNYBRInfAYBNyjRCSmSLQNTX/j7UjRuRgnsNzEEtRv8eaA2+IsiI3H0GC1x9NoCRHHX2idvvcM75f/elLPd14LMphl5fnLnNS7ckXlqwIXiCecqWStHJ9lFsjzgPAh1CwV3hoMN7Xf/pK//zPv7WX6bQvtbi0qDt37ui9d++o0aj7/cbhE15Z/CMOtBvFZnshOoSzoYB0ms9b5zrYP9Dr3T17m6fPHunps5+0+3pH3au+56+XFha0AH9Rkd0Jba+93d6+NGDPD93wkLFAzLavOoH8TGreZNntVtWoL7qg0Khh1Ukep9p61dLZSccITpSeJSL9tGE1GF3a/WPhs4V5Xb9ZVKO+bIBff9DV6GKicrUpKCkB87Ep0tgitZTP9lSuUgFkOWJdmQRKThAbORWALLhB6MaKPWZAFaQS3XfxnNklDc/oWPOLi2IB+mDcdi5DRYteB8TQpRJ5BpXiuo2XxkWNBuzPGKWhMbJCCXomRDCYgOKN8jpz3kDPM8kwZjlgFaH4YO89wxAF5s0X4I4OC9EJi5BPvlN4NnJjtYuG2RvvgHQ7KojkeVYtstSnfziPSHNJh0aUrcKqBh35YEi8z+4BwqRQAlwdLssAKrTOQy9gfkLwEEKWPj948IN++9t/0P37/6HB4Mp1aqzPzuttvdx8IYhjgUmjNHSXgT+gmcR0Y4ZhDZ0GODZyMry1vaXvvv1O//qvv9PzZxsaDQfefLK40FRzfs4WBErIfg9yWqxXJNccm8+wspJrjECJxmeyCI9YGMzR8cmx9nb3tfliU4enr3XVb/teMEJJabhRnVetXFYhR0jH1su+jk5QeHA3AA6hXZTOLjNqd6YaYmFhsxtXtLD4vlaWmioVoIqBAqUr70GbjtTtBkQcr8dEFxY0m58oy8RbJqNGI6f5BYQhq3yeTfI5ddttUeOfbzZUYRvfpKpiYcFU8pfdE40nFypWE2P72XlMNQmCMqAjEJBhzDAu5F4UH/mRE1FCDxqqg76KlanXXuXLAY2fjnLK5CamUAS1Cu8SzHZmjktnGEbTkYaUuNlGxGZTOr9puMzzBK5u+TEUx5vinEcwEcgcisudSIAbrNSu/S4rLtEJXw51nUJmNEnPN37oy4rXYO09cksOEBEFzVG+nEs4jwvZdZmXLrpL4GnVCOwNMAXo3gn6KSOaetAYeR/GN4oTtHClHb1oioHD6en45ESbmy/0L//yO/3fP/zeOCBCAgib4NDvXXX19OkTV3dQLqaRuGJAbFMoX9J8gdCJJR8kUy9fPtef/vSlyAuoQBG+AcTjuCz/4Obu7b/W5C8h9HCYDvoA42IhNuEOx8OrAP2gnMf5wysKw9xF+9IKwvJAhJzzbObY61VUmUFgTNQ0sTUt5BIVkopKhYkhBQbFeWi8oNwYNCoJ5qWmI0a4Ji5ZLi0uqJyfV7FQMS3kZNpSkumrXC3GTDid/DQpDdYHehCxqN3hAUhbmnMThlsAp9XU77dMQJbLM4/cMKqTsKZamWri9bqsjCVHYk90WblieHi8F+OeNM2ifM5QPox/WOesF+iE0rBsHDUhTo5FkqUMo6Nls9DF/WUKDoqWYARhhx48uIWkqCLFfxoxrIZNoS7IkgdoxgGVcaM1bapicBnzdRGObgQhEEk9DbTZ4Bci6Nwx9j+Gl0+R4rPYl2gnTaStWG6qJemqs4hewjACzcCLRMMJw8CXPcLJybEtRqVSczWDB2nIMeEYeBovCQ8OS4QXC8MXAg3xLonx999/rz/+8Y/ODc7OTlWvw8u/qIVmUw0WeWmq58+fGWW6v38gsEQgRiHCRWBRBNwXew02NjbEXMLzF8/1448/6PT0xIpKr4BZZBSAheG4SF6HAnKR3v/G8uvBWP1B34I/HpLwBaYeCcADIWzMIFAqhcZyno2eZXibRhqMu8oWJ6rUSkD1bfXZ50t3vJTPq5RLVMxD1Bt9HfhEh1DMFaaa5lrKXJ1qoq7q5BPVOSWToCB0YWHAfYMqsenwhQeKISh5vWuEmFRPpr1BIHRNaCsVQcN6zS0dXwSZ+WOYnpkjJ8RIVC6WNXVXnbidKlnVZGw89YBsIJh+ajEOik/wUBQWmQoYd4fOclnlbDaG6XMjM6KTuwEERGkBAaJUQQUZaAPCpUK+pFKOZ0MBZKgsFEFeGB7eiP4Sw0eQQtCBhhGDahmhD1Uh5cgtAiXs/I4zQmJdAbK4RQnU4U6U3ZFFDIatd2r5eWgRHYeGcM14g9m3j4n/9WBOLI/k6FaE1tmZa6tLC8veYXVy0tLrvUMPpCwuzQu6cGvTFFfKbPNYF5ctC+jO1rZevHwpavsI8GDQ19raqjuFEOQC861Vq7YoQLgZk2TfAQJfr0NsBQQb6xKD9gcHB47Xj44PzVqHtYLDNOLLnFGf9ClmSFGsC61/V5hS14+1xkqaDQHGtDRvMKadUGTCFnhmFiZWLHb2snR7yIIOXusmF/lQxrE5rMrlYk0l2P6SxIspqJxkCiMl5E9JXsVpouIQVrWuJslYJQbwKxmNr+ArkgYjEKrMDhc0muRUmMJ1yiNkpRPd2776Q8YopyZaNmQjzWu4Xp5zX3CKZmMjTTE62RBt+UHmY655NCo6rE4yVSexmSy50sBCaVeQIV9gHiGr0YBYN+AhWGz+K0aZxl6M5eYoiBUG4rJJbMwsUIwAqUso5/4Q1OsQQPDiIAkz3y+exhUfMLWE2VG+htxr2sfb8YX1R1ndhHKuSQUTix1VQ0ga/EKfPnE9su8N2A6beC+5ahhmA/5cNZqIza8zRC0KRRhKjgsZQpJi4tIjhyLQ/GD4HZpFurrPn73Ql18ywdXX+u113bhx3ex0wJE5OSw4gry9s6WtTQiaXqvTaatRr+rayrKFEMGG64ihe3afGXOeMlh32i29fNGOfAM5Mtw5kKsgQ9uXlyoVs7pxfVnSYsT2hGuFIN4Ff8TNYJaAcKlcDuw6SoGSRn6A1gdYCyV2qZlbBq5qQMUlMO71elnlUlbj/hijpGyhImUphyJ0fAb7BcoqFeiM4+KpymV8P+hxYLqn477DiVx24KQPa10GdwWXEiwWiB3jqAkTacw+EH8jBmHNXFGDSSOZeuEe18RzoFrG0r0IQSYqcM7Kqsai9XzBkHlGXC0YSCwzvtmSm0t8nnNV9yk8xRzhAOdvkgGijbCMCVQ6iOQUvxPd/Dw5IJ6AShPnQxhH1dA5GELF9RjrZwtvwzxiw2DMKzisSkvghDpm4vAsszRgKAtPkORUyhaUZ7c1yk45lDCKypuxSrEkcias3HuX1dkhQWXJyhUOARlyTccNNvLE8Dacj/FGzkJTJSJXQTFS1hKOH30EARfuam9v34K0uflMv//9P7micv3GDX344QcOTUimsNA4SPYLdLuQwnZVr1a05JlekkL2K48NY2CCi+QY7lJudMbWGSWNChT1fUqyuF6stPKJj0XTTkmsJ8JQkATjNRAQOHQCs0SlKeJb3KNDI8r4PBG3feP24QJniTPJMr8eUFbjRvB+hsuzI5k6BUY/Vg9RBcP0OOSIsCgELm4qxsDXQ72cHCIzVpKfaFoYExqbLr2SVFSYFpRlcm80MWSEjisVHAxVkmUKjVAgQk4eRInpNIwFQznTni8jB26GcucYJRtYCUtZi44vMCwu5wODGNoAmQZPCBs75Ja6pGvoBi0853dhGKBAjK9IKClEQN5MrE2Ywz3y+l7zg45Nu8g2SgxMhEvkGGGEbN1xCWk4ifnmP8Jq7hefSyeYMKhPuTyThBLQ26BmRTHGpoEzj8EoUx3bmGHzeWawhSRGMAOs8wxGak+QSu6n12khD/Y1BHDhd3xffCuyyhVyLs/CBkjZgC8rQjBYTFxFwSIzyghPEM0wTgCLPteAQDZiVOJsQGtY5JXlKO0RGyKoaCxJKWufgDOUoOlmCVh6QnQGOWH/bYtBKZZ4lQ09UdnBssOMBusakhuYoDg+uQGfyx1HCLAecewAGXFubhpy4+xpgr8GZcCy/vyeUB5bGE+wJUrG8VncGgQYwYVjPw+9iIl04zNch06TOYMGsYyAA0dD9QmdcrynqEKOHQLMeQQ6lxtuq8cDdbeUUCExSoPfIUckiWiKFZory6ZWG2g5Y4/jifKFsrI5yAx43CGMnpNmoUeKGLWSu7qSSoonDTOGYyPIEZ+j61FnR3Jyw3h+KMAM2gDVzBvPAYDRihxVGb+Xkiw1BZhNHCeF1yUk4RwoqPB7Qi/0iZ8xqwLpGd4RNkRY/KhL2MBYmHmi4dFtNKx3PM/IGywvFt+Ik3imJNlcqRXEiTI5SZaOadBGmqEl7jd9kZDDGdFBqghYU4SXcIewhzgdEBwhCDvIGGAB2Tns92I3lqk8YswRhSB5jZsSVpYT5qQQIJoqWNPZF93N2QVHF5unHVqLUIZgw3DNRYa+IsRMzrnUByCPoQBbPUuWFcGC80Yx4tOw/txQ1s9iZZmg4mcINcnb2IrB+ZB48tmpe+bGgvnJsngitrlzina3WNp09JMbSnWF/0fpWZTukIFENkeVZ7bSCAViqR0ZgNXMVtfLOBxuYw3BPIXy8pJZ2XB232CMo/duxctXIsRiTwCKQMiG67Swh13gfvBt6+3SJtWgsMz8DMGlIkUoYip+QonskPlFe0LCLPOOojRenRV7295wkbphGTbcx+PzPF4J+CAV4tRY8XR5nHjaUGdCH2SEkCkYrFEiCy7HMT6M841XubHLc3ORIJ6RFRkZ4JqBzCBzxnv6iTtyQe4mPSDiEZq5i+x1W3w2rCbSgEhk5hGYXMLbeRyv3bYV/Pyv/8aJIgxkCLs5atiEYqufOISg9MWXww/CHawCmHA0k0EPrIXNBYoSZTy7cMQHPNBbMd7PlgyhiBvM3eOyeI83s0AB792+vrUh1PYu9v8+l9l7/LmuKvDagG+EcM3eO+PTZNQxWJc5oF9N+dHXwQ2LeJUbb+X09WY88cV18zO8mevmCCMMFpynazAMsCOMfMdKU66Te4ESIah8jvn8/TBTgCEnwS2IP3xdvD5AeRQViNHjGFhYVzqRHn9OPA9+7OOn9392f+O5A0pLvak36chNM/Ykw2DCe6HvocY+GEUz0tfKkAxhntGgYPy5rjhnpNBVH2PIbM+thByL65j1cLhXvf7QsBC6vTkqS+NAa9lcOhSMGJ9j4zD9TCJ6s3KQz+NB0iwhDAAVW0oNjiyGJmcmtQd+4tUGrPMasiN7GBy6GANCXIzqTBE+vHvX1R0aU3gGbiDhDO6bk4mkbRgcORkSOqxlWH+spJMRX3HqvqgkOxShsgBTQ7wWy0nsyMk60XSDLsQeYfFX3DkLr3uG6ecTLhkrQs05pfXmpVgCPIlvA+cye+LcfkM0yGejz2Ch4cj2MAH4o6GDp+HTeXzpSfge8G9CLc6bc579HiHkMbhC4Zg45moHbir27F3okxBGUDKMKiHn8CZusfXjOgiDbLXTj7al44N/PhWfG+XsATE8DUfP8xIChnSgWJZe8oQ0Aeb8OG8spk8AIeHhEwPxmtQ3EQbxTLDig/7QFPskuuU6vY+s5SG9Kf4IrHaEtvG8wrOEzvrnPvcI5/w+R5NhYChl89Xr93wtdLu5FtO2cB5Wzrh0y5UvK/2c2S2xAkQBgufpsI2/eR5GlU7sNc3dm7B3+8r0QByvWq64zOwZl/HIFJOsMOYrM51Op26HE8txe5ycYLWiehA/i6fiU7KgpifnB2F/FPE4B0x/P3tIb+Taj5D3xXvtx2YXN/uZTyn+SF+VCh+fnypM+q83Qsl7Zx+SPuDZYfwO5GCmHLPX8QJ+5g+Jm/iz5M3ePft7diaz/08vwbckcga/l+P5sPGz2X34+V3x+xDw2fs4dvpzv/Dtz3r753GUuA4uN4QGQxHv532z77fflx7PP+KP9Jsfz16WvsSxS3qy/Mo/TkOrmQH5+Vr41+yNEZ79/P/pu2f3983BsEBxz+NxEKZiIGdHTSV8dtzZ+2e//p9/p/fb1zE7Rhoa/Xy+/CJyFgxAhL78zCxnDgGJdLL/L7L5L66SvCs3f5f2AAAAAElFTkSuQmCC;" vertex="1" parent="1">
          <mxGeometry x="238.07" y="501" width="194" height="70" as="geometry" />
        </mxCell>
        <mxCell id="TopPfdqth3kxaZBov_Pg-49" value="&lt;font face=&quot;宋体&quot;&gt;特征序列&lt;/font&gt;" style="text;html=1;align=center;verticalAlign=middle;resizable=0;points=[];autosize=1;fontSize=14;fontFamily=Times New Roman;" vertex="1" parent="1">
          <mxGeometry x="490" y="335.06" width="70" height="20" as="geometry" />
        </mxCell>
        <mxCell id="TopPfdqth3kxaZBov_Pg-50" value="" style="shape=flexArrow;endArrow=classic;html=1;fontFamily=Times New Roman;fontSize=14;" edge="1" parent="1">
          <mxGeometry width="50" height="50" relative="1" as="geometry">
            <mxPoint x="338.7100000000001" y="430" as="sourcePoint" />
            <mxPoint x="338.7100000000001" y="390" as="targetPoint" />
          </mxGeometry>
        </mxCell>
        <mxCell id="TopPfdqth3kxaZBov_Pg-51" value="&lt;font face=&quot;宋体&quot;&gt;输入图像&lt;/font&gt;" style="text;html=1;align=center;verticalAlign=middle;resizable=0;points=[];autosize=1;fontSize=14;fontFamily=Times New Roman;" vertex="1" parent="1">
          <mxGeometry x="490" y="525" width="70" height="20" as="geometry" />
        </mxCell>
        <mxCell id="TopPfdqth3kxaZBov_Pg-52" value="&lt;font face=&quot;宋体&quot;&gt;卷积神经网络&lt;/font&gt;" style="text;html=1;align=center;verticalAlign=middle;resizable=0;points=[];autosize=1;fontSize=14;fontFamily=Times New Roman;" vertex="1" parent="1">
          <mxGeometry x="475" y="460" width="100" height="20" as="geometry" />
        </mxCell>
        <mxCell id="TopPfdqth3kxaZBov_Pg-53" value="&lt;font face=&quot;宋体&quot;&gt;双向LSTM&lt;/font&gt;" style="text;html=1;align=center;verticalAlign=middle;resizable=0;points=[];autosize=1;fontSize=14;fontFamily=Times New Roman;" vertex="1" parent="1">
          <mxGeometry x="490" y="190" width="70" height="20" as="geometry" />
        </mxCell>
        <mxCell id="TopPfdqth3kxaZBov_Pg-54" value="&lt;font face=&quot;宋体&quot;&gt;逐帧预测&lt;/font&gt;" style="text;html=1;align=center;verticalAlign=middle;resizable=0;points=[];autosize=1;fontSize=14;fontFamily=Times New Roman;" vertex="1" parent="1">
          <mxGeometry x="489.94" y="75" width="70" height="20" as="geometry" />
        </mxCell>
        <mxCell id="TopPfdqth3kxaZBov_Pg-55" value="&lt;font face=&quot;宋体&quot;&gt;预测结果&lt;/font&gt;" style="text;html=1;align=center;verticalAlign=middle;resizable=0;points=[];autosize=1;fontSize=14;fontFamily=Times New Roman;" vertex="1" parent="1">
          <mxGeometry x="489.88" width="70" height="20" as="geometry" />
        </mxCell>
        <mxCell id="TopPfdqth3kxaZBov_Pg-57" value="" style="shape=partialRectangle;whiteSpace=wrap;html=1;bottom=1;right=1;left=1;top=0;fillColor=none;routingCenterX=-0.5;fontFamily=Times New Roman;fontSize=14;rotation=90;" vertex="1" parent="1">
          <mxGeometry x="120" y="55" width="111.93" height="15" as="geometry" />
        </mxCell>
        <mxCell id="TopPfdqth3kxaZBov_Pg-58" value="" style="shape=partialRectangle;whiteSpace=wrap;html=1;bottom=1;right=1;left=1;top=0;fillColor=none;routingCenterX=-0.5;fontFamily=Times New Roman;fontSize=14;rotation=90;" vertex="1" parent="1">
          <mxGeometry x="40.96" y="261.54" width="270" height="15" as="geometry" />
        </mxCell>
        <mxCell id="TopPfdqth3kxaZBov_Pg-59" value="" style="shape=partialRectangle;whiteSpace=wrap;html=1;bottom=1;right=1;left=1;top=0;fillColor=none;routingCenterX=-0.5;fontFamily=Times New Roman;fontSize=14;rotation=90;" vertex="1" parent="1">
          <mxGeometry x="96.44" y="489.52" width="159.04" height="15" as="geometry" />
        </mxCell>
        <mxCell id="TopPfdqth3kxaZBov_Pg-60" value="&lt;font face=&quot;宋体&quot;&gt;转录层&lt;/font&gt;" style="text;html=1;align=center;verticalAlign=middle;resizable=0;points=[];autosize=1;fontSize=14;fontFamily=Times New Roman;fontStyle=1" vertex="1" parent="1">
          <mxGeometry x="110" y="35" width="60" height="20" as="geometry" />
        </mxCell>
        <mxCell id="TopPfdqth3kxaZBov_Pg-61" value="&lt;font face=&quot;宋体&quot;&gt;循环层&lt;/font&gt;" style="text;html=1;align=center;verticalAlign=middle;resizable=0;points=[];autosize=1;fontSize=14;fontFamily=Times New Roman;fontStyle=1" vertex="1" parent="1">
          <mxGeometry x="110" y="241.54" width="60" height="20" as="geometry" />
        </mxCell>
        <mxCell id="TopPfdqth3kxaZBov_Pg-62" value="&lt;font face=&quot;宋体&quot;&gt;&lt;b&gt;卷积层&lt;/b&gt;&lt;/font&gt;" style="text;html=1;align=center;verticalAlign=middle;resizable=0;points=[];autosize=1;fontSize=14;fontFamily=Times New Roman;" vertex="1" parent="1">
          <mxGeometry x="110" y="469.52" width="60" height="20" as="geometry" />
        </mxCell>
      </root>
    </mxGraphModel>
  </diagram>
</mxfile>
